<?xml version="1.0" encoding="utf-8"?>
<!-- Generator: Adobe Illustrator 27.7.0, SVG Export Plug-In . SVG Version: 6.00 Build 0)  -->
<svg version="1.1" id="Layer_1" xmlns="http://www.w3.org/2000/svg" xmlns:xlink="http://www.w3.org/1999/xlink" x="0px" y="0px"
	 viewBox="0 0 3260.6 2864.3" style="enable-background:new 0 0 3260.6 2864.3;" xml:space="preserve" width="3260.6">
<style type="text/css">
	.st0{fill:none;}
	.st1{fill:#221F20;}
	.st2{fill:#221F20;stroke:#221F20;stroke-width:5.0535;stroke-miterlimit:10;}
	.st3{fill:none;stroke:#4B4748;stroke-width:3.369;stroke-miterlimit:10;}
	.st4{fill:none;stroke:#4B4748;stroke-width:5.0535;stroke-miterlimit:10;}
	.st5{fill:#FFFFFF;filter:url(#Adobe_OpacityMaskFilter);}
	
		.st6{mask:url(#path-49-outside-1_0_1_00000177473157805603481920000012663441425421117356_);fill:none;stroke:#FFB756;stroke-width:26.9519;stroke-linejoin:round;}
	.st7{fill:#AFABAC;stroke:#231F20;stroke-width:0.8422;stroke-miterlimit:10;}
	.st8{fill:#AFABAC;}
</style>
<g>
	<path class="st0" d="M2129.7,2066.2l1.3-1c5.3-4,11.3-14.6,12.8-19.5c-5.1,4.5-16.3,19.3-22.6,27.8
		C2123.7,2070.7,2126.9,2068.3,2129.7,2066.2z"/>
	<path class="st1" d="M3270.6,904.6c-0.1,0.1-0.1,0.2-0.2,0.2c-3.2,0.8-14.3-6.7-22.4-12.2c-2.6-1.8-5.4-3.6-8.1-5.4
		c-13.7-9-31.5-22.1-38.8-33.4c-4.6-7.3-11.8-9.1-18.2-10.8c-4.4-1.1-8.5-2.2-11.6-4.8c-7.1-6-21.9-5.6-27.8-0.9
		c-2.7,2.1-3.3,5.1-1.8,8c0.6,1.2,1.3,2.3,1.9,3.3c0,0.1,0.1,0.1,0.1,0.2c-1.8-0.7-4.4-1.9-8.4-3.8c-17.2-8.4-37.8-4.7-48.8-2.8
		c-1.8,0.3-3.3,0.6-4.5,0.8c-4.7,0.7-9.1,4.2-13,7.3c-5.1,4.1-7.4,5.6-8.7,4.2c-6.6-7.7-16.6-7.5-22.2-3c-1.1,0.9-3.7,1.2-6.5,0.7
		c-2.4-0.4-4.1-1.2-4.9-1.7c3.8-2.7,5.3-5.4,4.5-8c-1.1-3.4-5.6-4.9-14.6-4.9c-12,0-13.5-1-20.6-5.6c-1.3-0.9-2.9-1.8-4.7-2.9
		c-2.5-1.6-4.7-3.5-6.8-5.4c-7.1-6.4-14.4-13-32.4-0.3c-12.8,9.1-16.6,6.6-25.1,1.1c-4.4-2.8-9.9-6.4-17.9-9
		c-11.2-3.7-21.3-8.6-31.2-13.4c-10.4-5.1-20.2-9.8-30.6-12.8c-7-2-10.6-2.4-12.7-2.6c-2.2-0.2-2.2-0.2-5.4-4.3
		c-1.1-1.3-2.4-3-4.1-5.1c-4.2-5-9.3-7.8-15.2-8.3c-10-0.7-19.7,5.5-23.9,9.3c-1.4,1.2-2.7,2.3-3.8,3.2c0-1.8-0.7-3.1-1.7-3.9
		c-1.3-1.1-5-2.9-12.1,2.9c-1.4,1.2-2.4,1.8-3,2.1c0.1-0.9,0.4-2.3,1.2-4.6c1.4-3.6,0.6-7.2-2-9.7c-3.9-3.7-10.9-4.1-18.3-1
		c-4.7,2-8.2,0.8-12.4-0.5c-4.9-1.6-10.5-3.3-18.3,0c-4.9,2.1-8.7,4.7-12,7c-5.9,4.1-9.8,6.8-16.5,4.8c-3.7-1.1-5-2-5.4-2.3
		c0.5-0.7,2.3-2.2,8.9-5.4c5-2.4,6.2-5.5,6.4-7.6c0.2-2.6-1.2-5.2-3.8-6.9c-3.4-2.3-7.8-2.5-11.5-0.6c-1.3,0.6-3.4,0.9-5.7,1
		c1-0.5,1.6-1.2,1.8-2.3c0.5-2.8-1.1-4.3-17.5-10.8c-7.3-2.9-9.6-4.5-10.4-5.2c0.7-0.6,2.2-1.4,3.4-2c2.9-1.6,6.5-3.5,8.9-6.6
		c4.3-5.5,5.6-10.9,3.5-14.8c-2.5-4.7-9.2-6.6-19.9-5.7c-6.6,0.6-10.8,0.6-13.6,0.6c-3.6,0-5.2,0-6.4,1.5c-1,1.3-0.8,2.7-0.4,4.4
		c-0.1-0.1-0.1-0.2-0.2-0.3c-2.2-4-22.9-17-31.4-15c-2.7,0.6-4.3,2.6-4.4,5.4c-0.2,3.8-1.3,5.7-2.3,6c-1,0.2-2.7-0.8-4.1-3.2
		c-1.6-2.6-3.3-5.2-6.2-5.6c-3.7-0.5-7.4,2.5-15,9.4c-2.5,2.3-4.7,4.3-5.6,4.8c-0.2-0.1-0.6-0.4-0.9-0.6c-1.9-1.4-5.1-3.8-12.5-5.7
		c-2.2-0.6-4.2-1-5.9-1.5c-4.3-1-8.8-2.1-9.8-3c0.1-0.4,0.8-1.7,3.6-4.6c4.4-4.6,6.5-10,6-15.6c-0.5-6.2-4.2-12.1-10.3-16.6
		c-5.5-4.1-10.3-5.6-14.6-4.6c-4.6,1.1-8.5,4.9-12.2,12.1c-2.1,4-4.8,6.2-7.4,8.3c-4.6,3.7-9.4,7.6-5.1,19.1
		c3.1,8.3,3.4,12.1,3.7,15.1c0.2,2.7,0.4,5,2.2,9c1.1,2.4,0.6,4.8-0.3,5.9c-0.1,0.2-0.6,0.7-1,0.6c-0.6-0.1-1.8-1.1-2.9-4.4
		c-1.8-5.4-3.4-8.7-6.3-9.5c-2.9-0.8-5.2,1.1-8.5,3.7c-0.8,0.6-1.6,1.3-2.5,2c-0.9,0.7-1.3,0.7-1.3,0.7c-0.6-0.2-1.7-2.6-2.2-3.8
		c-1.3-3-3.5-8-8.3-6.1c-2.2,0.9-5.7-0.2-9-1.3c-3.6-1.1-7.3-2.3-10.6-1.5c-1.6,0.4-3.5-0.6-4.3-2.1c-1.2-2.5,0.7-6,5-9.4
		c4.8-3.7,7.7-3.8,9.9-3.9c4.4-0.1,6.5-1.4,7.9-9.2c0.2-1.2,0.4-1.9,0.6-2.2c0.3,0.1,0.7,0.4,1.1,0.5c3.4,1.7,9.8,5,17.5-5.6
		c7.8-10.9,10.1-16.2,8.4-20.5c-1.5-4-6.1-5.5-10.4-6.5c-5.3-1.2-10.1,0-13.6,0.9c-1.9,0.5-4.3,1.1-4.9,0.7
		c-0.1-0.1-0.7-0.6-0.9-3.4c-0.4-4.9-2.7-9.1-6.9-12.3c-6.4-5-16.7-6.9-26.7-5.1c-15.7,2.8-21.5,12.9-27.7,23.6l-0.2,0.3
		c-2,3.3-3,6.9-4,10.3c-2.4,8.2-4.6,16-19.4,23.4c-9.7,4.8-16.8,9.9-23.1,14.4c-8.2,5.8-14.7,10.4-23.3,12.1c-8,1.6-13.8-1.1-19-3.4
		c-4.6-2.1-9-4-13.8-2.3c-7.5,2.8-6.6,8.4-6,11.8c0.2,1.5,0.5,2.9,0.1,3.8l-0.4,1c-1.1,2.7-2.2,5.5-1.5,8.7
		c-0.8-0.4-1.6-0.8-2.3-1.2c-4.2-2.2-8.6-4.4-11.4-5.2c0,0-0.1,0-0.1,0c-0.9-2.2,5.3-12.7,10.1-15.9c1.6-1.1,3.9-2.3,6.4-3.7
		c8.6-4.7,13-7.4,12.4-10.8c-0.2-1-0.5-2.9-2.4-4c-2.9-1.6-8.4-1-27.2,7c-19.1,8-24.9,18.6-26.7,24.2c-1.7,5.3-1.3,10.6,1.1,14.5
		c1.1,1.8,2.2,4,3.3,6.3c3.8,7.9,9.1,18.7,18.1,14.6c2-0.9,3.3-1,4-1c-0.5,0.8-2,2.3-5.6,3.9c-3.8,1.7-6.5,2.1-8.8,2.4
		c-4.7,0.8-7.7,1.6-9.1,9.2c-1.8,9.8,5.9,29,16,37c-3.1-0.8-6.4-2.2-8-4c-2-2.3-3.1-6.3-4.4-10.6c-1.7-6-3.7-12.9-8.7-17.6
		c-2.2-2-1.8-3,1.1-7.1c2.8-4,6.7-9.4,4-17.6c-1.1-3.4-2.8-7.4-6.1-8.2c-3.3-0.9-6.1,1.7-9.2,4.7c-1.7,1.6-3.7,3.5-5.8,4.8
		c-6.3,4-13.5,10.1-21.9,17.2c-3.1,2.7-6.4,5.4-9.9,8.3c-7.6,6.3-17,11.3-24.5,15.4c-5.1,2.7-9.2,4.9-11.5,6.8c-4,3.3-7.4,5.3-9,5.9
		c0.1-0.5,0.3-1.2,0.6-2.2c1.5-4.2,0.9-8.1-1.6-10.7c-2.3-2.3-6-3.1-9.2-2c-3.2,1.1-5.3,4-5.6,7.6c-0.8,8.7-6.8,18-9.6,21.2
		c-5.3,6,1.7,12.5,6.4,16.8c-0.6-0.3-1.4-0.7-2.2-1.3c-5.7-3.8-13.3-0.3-20.3,9.5c-2,2.7-17.2,15.4-20.6,17.5
		c-2.2,1.4-2.5,3.2-2.4,4.1c0.2,2.6,2.8,4.9,8.5,7.5c-1.5,0.6-3.1,1.5-4.6,2.7c-3.5,2.8-2.7,6.5-2,9.7c0.7,3.3,1.5,7.1-0.9,12
		c-5.8,11.6-6.5,27.2-6.9,35.6c-0.3,6.3-19.5,25.7-28.6,34.2c-0.4,0.3-35.8,30.8-75.7,33.3c-15.3,1-28.5,0.4-39.1-0.1
		c-14.5-0.6-23.3-1-26.7,3.2c-1.4,1.7-1.7,4-1,6.7c0.5,1.7,1.1,3.8,1.8,6c5.5,17.8,9.6,35.7-5,42.3c-15.7,7.1-22.4,16.8-21,22.7
		c0.8,3.3,3.9,5.1,8.2,4.8c9.1-0.6,23.1,15,24.8,19.1c2.6,6,24.1,20.3,33.2,24.6c10.3,4.8,50.5,32.3,59.4,48.2
		c4.2,7.4,10.2,11.7,16,15.8c7.6,5.4,14.9,10.5,17,22.7c1.2,6.7,1.1,12.8,1,18.1c-0.2,12.1-0.3,22.6,16.7,27.8
		c4.5,1.4,8.5,2.7,12,3.9c14.2,4.8,22.8,7.6,27.5-1.1c1.6-2.9,4.4-3.8,7.4-4.7c4.1-1.3,9.8-3,8.8-11.4c-0.4-3.3,1-5.8,2.4-7
		c0.9-0.8,1.5-0.8,1.5-0.8c0.3,0.3,1.2,2.5-0.8,8.7c-3.4,10.5-3.3,17.1,0.3,20.3c2.4,2.2,6.2,2.3,10.5,0.4
		c5.8-2.6,22.5-4.4,28.2,4.1c1.2,1.8,2.5,3.8,3.2,5c-0.4,0.1-0.8,0.2-1.1,0.3c-1.3,0.4-2.9,0.8-4.8,1.6c-4.6,1.8-7.7,4.6-9.2,8.3
		c-2.2,5.3-1.1,12.4,3.2,21.8c5.2,11.3,12.7,18.2,19.1,17.5c3.2-0.3,7.5-2.5,9.6-11.3c1.6-6.8,5.9-11.6,9.7-15.9
		c4.9-5.6,10-11.4,5.4-19.2c-0.8-1.4-1.2-2.3-1.5-2.9c1.4,0.2,3.6,0.9,5.1,1.3c1.7,0.5,3.4,1,5,1.3c2.4,0.5,7.1,0.4,12.1,0.2
		c1.8,0,3.9-0.1,5.9-0.1c-18.7,7.1-22.7,8.8-31.1,23.4c-4.4,7.8-5.3,11.7-3.1,13.9c2.4,2.4,6.3,0.8,11.9-2.4
		c1.8-1.1,5.3,2.6,8.3,5.8c3.8,4.1,7.8,8.3,12.5,8.3c0,0,0,0,0,0c2.3,0,4.5-1.1,6.4-3.2c6-6.5,19.2-13.5,28.6-13.1
		c3.2,0.1,5.5,1.1,6.8,2.9c5,6.3,7.6,16.1,5.6,21c-0.7,1.8-2,2.7-3.9,2.9c-2.6,0.3-5.1,0.4-7.8,0.6c-8.3,0.4-16.9,0.8-25.9,7.2
		c-10.1,7.1-22,2.3-29.3-5.6c-6.6-7.1-19.9-9.4-26.2-6.2c-2.7,1.4-4,3.7-3.4,6.4c0.9,4.7,5.2,7.4,9.6,10.2c3.3,2.1,6.8,4.3,9.5,7.6
		c4.5,5.4,3.3,13.4,2.2,20.4c-0.3,2-0.6,4-0.8,5.7c-0.3,3.1-1.8,5.5-2.7,6.2c-0.3-0.6-0.9-2.2-0.9-6c0-9-4.7-16.6-11.2-18.1
		c-2.7-0.6-9.6-1-14.9,9.7c-2,4-3.6,6.9-4.9,9.2c-3.8,7-4.9,8.8-1.8,15c0.4,0.9,0.4,1.6-0.1,2.3c-0.5,0.7-1.7,1.3-3.1,1.1
		c-2-0.3-3.8-2.3-4.8-5.4c-3.4-10.2-17.2-10-29.3-9.9c-4.9,0.1-9.6,0.1-13.3-0.5c-5-0.8-13.1-0.5-21.6-0.3c-7.3,0.2-14.9,0.4-20.9,0
		c-8.6-0.6-9.5-2.2-9.5-2.3l-0.7-1.5c-2.5-5.7-5.4-12.1-10.7-13.7c-1.6-0.5-3.2-0.5-4.9-0.1c1.3-1.5,2.8-3.2,4.3-4.4
		c3.3-2.9,3.5-7.7,3.7-12.9c0.2-5.2,0.5-11.1,3.9-15.4c5-6.4,6-15.7,2.1-21.6c-2-3.1-7-7.8-18-5c-17.8,4.5-28.4,9.5-40.3,19.1
		c-9.8,8-27.2,14.5-35.1,16.8c-5.3,1.6-16.1,8.9-17,16.8c-0.3,2.8,0.4,6.7,5.8,9.8c4.2,2.4,5.7,4.6,5.3,5.6
		c-0.4,1.3-3.3,2.6-6.5,2.3c-7.9-0.7-12.5-2.9-13.8-6.4c-0.8-2.1-2.3-3.6-4.4-4.2c-5.2-1.7-13.7,1.5-26,9.7
		c-14.8,9.9-17.6,16-21.4,24.6c-0.4,1-0.9,2-1.4,3.1c-2.1,4.5-5.8,6.1-8.5,6.5c-3.6,0.6-6.5-0.4-7.4-1.3c-0.2-0.2-0.4-0.4-0.6-0.6
		c-1.8-1.9-4.4-4.5-8.3-4.5c0,0,0,0,0,0c-3.7,0-7.9,2.4-12.6,7.4l-1.9,2c-8.6,8.9-19.2,19.9-18.5,29.2c0.2,3.3,1.8,6.1,4.7,8.3
		l0.7,0.5c12,9.2,32.1,24.5,50.9,28.6c6,1.3,9.6,2.4,12.3,3.3c6.3,2,8.3,2.4,18,0.1c9.9-2.4,16.5,5.9,22.3,13.2
		c1.4,1.7,2.6,3.3,3.9,4.7c1.6,1.7,2.2,3.6,1.7,4.9c-0.2,0.7-0.7,1.1-1.3,1.2c-1,0.1-2.1-0.6-3.1-2c-4.4-6-14.1-10.9-21.1-10.6
		c-4.5,0.2-6.7,2.3-7.7,4.1c-1.9,3.2-6.1,4.7-8.4,4c-0.5-0.2-1.8-0.6-1.6-3.2c0.3-4.4-2.2-7.1-4.7-8.2c-2.7-1.1-5.7-0.6-7.5,1.4
		c-1.4,1.5-3.1,5.1,0.8,11.8c1.9,3.3,4.6,7,7.4,11c7.9,11,17.7,24.7,13.8,33.3c-5.7,12.7,0.4,18.2,9.7,26.5c1.9,1.7,4,3.5,6.2,5.7
		c9,8.6,10.1,9.1,17.2,8.1c2.9-0.4,7.4-1,15.1-0.8c10.2,0.3,16,2.8,21.1,5c6.3,2.7,11.8,5.1,21.7,1.5c6.5-2.3,11.6-5.1,16.1-7.6
		c7-3.9,12.6-7,20.1-6.2c23.5,2.3,37.9,7.2,42.7,14.5c2.5,3.7,5,5.4,7.6,5.1c1.9-0.2,3.4-1.6,4.2-3.7c1.6-4.3,0.1-11.9-5.8-18.2
		c-3.3-3.5-3.7-5.7-3.5-6.4c0-0.1,0.1-0.3,0.5-0.3c1.2-0.2,3.3,0.5,5.2,2.8c2,2.4,4.5,4.2,7,5.9c5.7,3.9,10.2,7,7.8,16.9
		c-2,8.3,0.5,12,2.2,13.4c2,1.7,4.8,2.1,7.5,0.9c3-1.3,6.3-4.7,6.6-10.6c0.5-9.1,10.1-17.5,20.2-26.4c1.2-1,2.4-2.1,3.6-3.2
		c4.8-4.3,8-8.2,10.5-11.4c4.2-5.2,6.2-7.6,10.6-7.9c2.5-0.2,5.2,2,7.8,4.1c3.2,2.6,6.6,5.4,10.5,4.5c3-0.7,5.5-3.2,7.8-8.1
		c4.1-8.6,7.6-11.6,9.6-11.6c0,0,0,0,0,0c1.3,0,2.6,1.5,3.7,4.2c1.1,2.6,3.2,5.2,5.5,8c6.2,7.7,9.9,13.2,4.8,20.2
		c-8.7,11.8-12.3,11.6-23.1,11c-6.1-0.4-16,1-16.7,6c-0.8,4.9,7,6.9,10,7.6c10.5,2.6,10.4,6.7,10.4,14.9c0,2.4,0,5.2,0.3,8.2
		c0.5,4.3,3.4,9,6.7,14.5c7.9,12.9,17.8,28.9,6.2,50.6c-15.4,29-29.5,28.8-45.9,28.6c-1.3,0-2.5,0-3.8,0c-6.7,0-9.1-3.5-11.2-6.6
		c-1.5-2.2-3-4.5-5.8-4.7c-2.9-0.2-5.9,1.9-10.9,7.5c-5,5.7-9.4,12.2-13.7,18.5c-9,13.4-17.5,26-31.2,30.7
		c-5.1,1.8-9.9,3.1-14.2,4.3c-14,3.9-24.1,6.7-24.1,18.7c0,2.5,0.1,4.9,0.1,6.9c0,1.1,0.1,2.3,0.1,3.3c-0.4-0.6-1-1.4-1.6-2.3
		c-2.4-3.6-4.2-7.8-6-11.8c-3.8-8.7-7.7-17.7-17.7-16.6c-9.5,1.1-20.6,4.9-22.7,10.8c-0.5,1.4-0.9,4.1,1.9,6.8
		c5.6,5.6,16.2,15.1,24.6,16.7c4.8,0.9,16.4,6.5,20,12.8c1,1.7,1.2,3.2,0.7,4.5c-0.2,0.5-0.3,0.8-0.4,0.9c-1.1-0.3-3.8-2.7-5.4-4.2
		c-3.9-3.6-8.3-7.7-13.1-7.7c-6,0-13.5,2.3-16,7.4c-0.8,1.6-1.6,4.8,1.4,8.6c1.2,1.5,1.3,2.9,0.3,3.9c-1.5,1.5-6.2,1.9-12-3.3
		c-3.5-3.1-7.7-6.2-12-5.2c-5.6,1.2-8.8,8.4-14.6,21.4c-3.2,7.1-8.2,14.3-12.6,20.7c-8,11.6-15,21.6-9.7,28.4
		c3.9,5.1,4.2,12.5,2.3,14.6c-0.2,0.3-0.9,0.9-3-0.3c-0.1-0.1-14.5-8.8-18.6-3.9c-2.5,3.1,1.3,7.3,2.7,8.9c3.5,3.9,4.9,7.8,3.7,10.4
		c-0.6,1.4-1.8,2.2-3.2,2.2c-4.7,0-10.5,5.9-11.1,11.2c-0.4,4,2.1,6.9,6.6,7.8c3.1,0.6,5.9,0.5,8,0.4c4.8-0.3,6.1-0.3,7.3,8.8
		c0.9,7.3,0.1,9.1-0.3,9.9c-1.2,2.5-0.3,3.6,2.8,7.4c1.4,1.8,3,4.3,4.7,7.1c3.9,6.5,7.7,12.6,12.4,12.3c2.4-0.2,4.4-1.9,5.9-5.3
		c2.9-6.6,4.8-7,5.1-7c0.3,0,2.2,0.3,5.6,7.1c1.8,3.6,1.7,6.9,1.5,10.1c-0.2,5.3-0.4,11.2,10.2,13.2c5.6,1.1,9.2,0.9,12.3,0.8
		c4.8-0.2,8.3-0.3,17.7,4.3c12.9,6.4,17.4,1.3,21-2.8c1.4-1.6,2.7-3.1,4.4-3.8c2.6-1.2,3.8,0.2,4.3,1c0.7,1.3,0.7,3.2-0.6,4
		c-1.7,1.1-2.5,2.5-2.5,4c0.1,2.7,2.8,4.2,6.2,6.1c2,1.1,4.2,2.3,5.8,3.8c3.2,2.8,6.7,9.8,5.5,12.2c-0.5,0.9-2.6,1.4-7.1,0.1
		c-8.1-2.2-11.6-5.1-14-7c-2.4-2-5-4.1-9.6-0.5c-0.6,0.5-0.9,0.5-0.9,0.5c-0.4-0.1-1.3-1.1-2-1.8c-2.6-2.7-7-7.1-16.6-7.9
		c-5.6-0.5-7.8-2.9-9.7-5c-1.4-1.5-2.9-3.3-5.5-3.3c0,0-0.1,0-0.1,0c-2.8,0-5.9,2.1-11.4,7.8c-3.1,3.3-6.3,6.3-9,9.1
		c-9.3,9.1-14.8,14.6-13.2,19.1c1.2,3.4,5.7,3.9,7.2,4c1.5,0.2,2.9,0.3,4.3,0.4c3.4,0.3,7.2,0.6,8.5,1.2c-0.2,0.5-0.8,1.5-2.5,3.6
		c-3.3,3.9-6.4,8-4.8,11.6c1.5,3.4,6.2,4.8,17.2,5.2c16.5,0.6,21.9,12.1,27.7,28.3c2.4,6.7,1.4,12,0.5,16.3
		c-0.7,3.6-1.3,6.7,0.5,9.4c1.3,2,3.7,3.2,7.5,3.9c15.4,2.9,40.5,0.4,59.9-6.1c15.2-5.1,27.8-16.3,29.4-26c0.8-4.9-1.1-9.2-5.4-12.3
		c-4.4-3.2-4.9-4.9-4.9-5.4c0-1.2,2-2.8,3.9-4.4c1.7-1.4,3.7-3.1,5.4-5.1c1.3-1.6,3.4-4.3,5.9-7.7c-0.9,1.6-1.6,3.3-1.8,5.1
		c-0.5,3.9,0.8,7.9,3.9,11.9c2.9,3.8,5.2,6,6.7,7.4c0.4,0.4,0.9,0.9,1.2,1.2c-0.3,0.5-1.1,1.5-1.8,2.3c-0.4,0.6-0.9,1.2-1.5,1.9
		c-5.9,7.6,1.3,14.5,6.5,19.4c2.3,2.2,4.8,4.6,5.9,6.6c10.3,18.9,18.2,41.4,9.4,48c-9.3,7-14.7,18.6-12,26c1.4,3.9,5,6.1,9.6,5.8
		c2.8-0.2,4,0.8,4.6,1.6c4.1,4.9,0.6,20.2-0.5,25.3c-1.8,7.9-5.9,17.1-15.1,15.4c-2.7-0.5-3.8,1-4.1,1.6c-1.1,2.4,1.4,4.9,3.7,6.8
		c7.2,6,21.1,12.5,30.1,6c5.5-4,11.3-8.8,16.4-13c5.6-4.6,10.9-9,13.1-10c4.8-2,21.1-12.2,28.7-19.1c3.2-2.9,6-4,7.4-4.2
		c-0.2,0.5-0.5,1.2-1.2,2.2c-5.1,7.7,1.3,12.2,6.4,15.9c2.2,1.6,4.5,3.2,6.6,5.3c3.2,3.2,6.1,4.6,9.1,4.3c4.7-0.5,7.7-5,10.1-8.6
		c1.2-1.8,3.3-3.5,5.8-3.2c3.4,0.4,6.6,4.2,9,10.7c5.2,13.9,21.5,35.8,30.4,38.4c2.3,0.7,3.9,0,4.8-0.6c6.8-5.1,7-12,0.7-23.8
		c-3.1-5.8-0.8-10.7,1.6-15.9c1.7-3.6,3.4-7.3,2.9-11.1c-0.3-2.5,1.6-4.6,4.8-7.9c3.5-3.6,7.9-8.1,8.3-15c0-0.4,0.1-0.7,0.1-1
		c2.8,0.9,10.8,9.3,16.6,17.6c3,4.2,6.9,6.5,10.9,6.2c0.9-0.1,1.8-0.3,2.6-0.6c-0.7,2.1-1.7,4.2-3,5.1c-0.3,0.2-1,0.6-2.4-0.3
		c-2.1-1.3-4.2-3.1-6.4-5c-7-6.1-15.8-13.6-26-4c-5.3,5-5.3,13.3,0.1,21.8c5.8,9,16.8,16.7,25.9,13c7.2-2.9,15.4-7.6,22.7-11.7
		c5.9-3.4,11.5-6.6,14.4-7.5c7.3-2.2,21-10.5,26.7-19.7c0.1-0.2,0.3-0.4,0.4-0.6c-0.1,2.4-1.2,6.6-4.6,11.1
		c-2.7,3.7-4.5,6.8-6.1,9.5c-3.1,5.4-5.8,10.1-14.7,17.3c-10.3,8.3-13.9,20.5-13,28.9c0.6,5.1,2.7,8.9,6.2,10.6
		c4.2,2.1,5.2,3.4,5.3,4.1c0.1,0.6-0.4,2.6-6.3,7c-12.1,9.1-10.3,31.5-9.7,38.9c0.9,10.4,3,16,6.8,17.8c1.5,0.7,4,1,7.2-1.3
		c0.3-0.2,0.5-0.3,0.6-0.4c0,0.8-0.2,2.1-0.9,3.6c-0.8,1.6-1.9,2.7-3.1,3c-1.8,0.4-4.5-1.5-6.9-3.1c-4-2.7-10.1-6.8-14.6-0.6
		c-5.1,7.1-34.3,38.3-42.3,45.6c-1.2,1.1-2.2,2-3.1,2.7c-6.5,5.4-5.3,7.2,1.3,17.3l0.8,1.2c2.1,3.3,3.1,5.2,3.5,6.4
		c-1.3-0.5-3.4-1.6-6.5-3.8c-6.6-4.8-8.6-4.9-13.2-0.9c-1.6,1.4-3.7,3.3-7.5,5.4c-6.3,3.5-10.4,7.9-14.2,12.1
		c-3.8,4.1-7.4,8-13,11.2c-14.7,8.2-22,13.2-21.2,18.1c0.6,3.6,5.2,4.4,6.7,4.6c7.3,1.1,13.6,6.4,14.3,8.4c-0.6,0.2-2.5,0.7-7.5-0.1
		c-18.2-2.9-28.4-2.4-33.1,1.6c-2,1.7-3.1,4.1-3.1,6.9c0,4.3,2.3,7.9,4.1,10.8c0.9,1.4,2.3,3.7,2.1,4.4c0,0.1-0.5,0.6-1.9,1.1
		c-1.2,0.4-2.7,1-4.5,1.7c-5.1,2-20.8,8.1-23.4,5.5c-0.3-0.3-0.4-1.6,0.4-3.9c3-8,2.8-13.2-0.7-15.3c-3.8-2.3-9.2,0.7-12.8,4.7
		c-1.7,1.9-3.6,1.9-7.3,1.7c-4.7-0.3-11.2-0.6-19.1,6c-4.7,3.9-10.7,9.3-16.4,14.5c-9.8,8.9-20,18.1-24.2,20.5l-1.1,0.6
		c-7.2,4.1-7.1,5.6-3.3,14.4l0.4,0.9c0.2,0.4,0.3,0.9,0.2,1.2c-0.7,1.3-5,2.4-8.2,3.2c-6.3,1.6-13.4,3.4-14.7,9.4
		c-0.9-0.5-2.2-1.5-3.1-2.2c-3.3-2.6-7.1-5.5-10.9-4.3c-2.4,0.7-4.1,2.8-5.2,6.4c-0.7,2.3-1.4,4.4-2,6.5c-1.9,6.5-3.7,12.6-6,13.5
		c-0.8,0.3-2,0-3.6-0.9c-9.8-5.6-23.8,1.5-35,7.3c-0.9,0.5-1.8,0.9-2.6,1.3c-3.3,1.6-6.1,1.9-8.5,2.2c-6.2,0.7-10,1.9-11.5,13.1
		c-0.8,6.4-4.3,11.7-7.2,16c-3.5,5.3-7.5,11.4-1,15.7c4,2.7,7.9,5,11.8,5c0.9,0,1.9-0.1,2.8-0.4c3.8-1.2,6.6-4.7,9.1-11.1
		c3.6-9.4,15.1-10.5,24.4-11.4c2.8-0.3,5.5-0.5,7.7-1c5.6-1.2,8.6-6.4,11.5-11.3c2.6-4.5,5-8.7,9-9.3c4.9-0.7,9-2.9,11.7-6.6
		c2.9-3.9,4-9.1,3.2-14.3c-0.1-0.8-0.1-1.2,0-1.4c0.3,0,1,0.1,1.9,0.6c1.6,0.9,3.4,2.9,3.8,5.6c0.8,4.8,4.8,8.6,10.1,9.5
		c5.7,0.9,11.1-1.9,14-7.4c1.8-3.3,2.4-3.2,5.3-2.2c2.9,0.9,7.4,2.3,13.2-1.5c4.2-2.8,6.9-5.5,9.5-8.2c3.9-4,7.6-7.7,16.1-11.6
		c8.9-4.1,11.1-4.2,14-4.5c1.8-0.2,4.1-0.3,8.2-1.4c4.6-1.2,7.2-2.5,9.8-4c3.7-2,7.8-4.3,19.3-6.6c15.7-3.1,27.1-14.1,34.6-21.4
		c2.5-2.4,4.6-4.4,6.3-5.7c4-2.9,7.9-3.5,8.7-2.9c0.2,0.2,0.6,1.9-1.7,6.3c-3.6,6.9-2.4,10.6-1.3,12.1c1.1,1.7,3,2.5,5.1,2.3
		c3.7-0.4,7.3-3.8,9.4-9c4.7-11.3,6-11.6,11.4-11.1c4.6,0.4,6.5-3.7,8.3-7.4c2.6-5.4,5.3-11,14.9-9.9c10.3,1.1,13.7-0.1,14.5-5.2
		c0.2-1.4,0.3-2,2.6-2.9c9.6-3.4,15-5.5,22.9-9.4c2.2-1.1,3.4-3,3.6-5.3c0.2-4.8-4.4-10-8.8-12.8c-5.3-3.4-10.8-4-15-1.7
		c-1.3,0.7-2.1,0.8-2.4,0.8c-0.1-0.3-0.1-1,0.4-2.1c1.4-3.4,5.8-8,14-10.6c8.7-2.8,16.4-1.2,21.5-0.2c3.9,0.8,6.6,1.4,8.3-0.7
		c1.5-1.8,0.7-4.2-0.3-6.6c-0.6-1.3-1-2.4-1.3-3.2c0.6,0.3,1.2,0.7,1.6,1c3.1,2,7.6,1.4,11.4-1.3c4-2.9,7.6-8.7,5.7-16.1
		c-0.4-1.7-0.7-4,0.6-5c1.8-1.5,6.3-0.9,9.1,0.5c4.9,2.4,11.3-2.7,18.8-8.7c3.5-2.8,7-5.6,10.2-7.4c1.2-0.7,2.7-1.5,4.2-2.3
		c7.6-4,17-9,19-16.3c0.9-3.1,0.3-6.3-1.6-9.5c-3-4.9-4-9.1-2.7-12c1.2-3,4.6-4.3,7.1-4.9c3-0.7,29.9-7.4,36.4-26.3
		c1.7-5,2.7-4.8,6-4.2c4.5,0.8,11.3,2,19-10.6c6.1-10,13.2-10.8,19.5-11.5c5.6-0.6,11.9-1.3,13.4-10c0.8-4.6,1.6-4.7,3.3-4.9
		c4.4-0.5,8.7-2,12.6-15.5c0.6-2.1,1.1-4.1,1.7-6c5.4-19.3,7.6-27.3,23.5-29.5c11.6-1.6,20.8-9.5,22-18.7
		c0.9-7.4-3.6-13.9-12.1-17.4c-7.7-3.2-11.8-6.6-14.8-9.2c-4.9-4.1-8-6.2-15.1-0.5c-1.1,0.9-1.7,0.9-1.8,0.9c-0.1,0-0.6-0.5-1-2.1
		c-1.6-5.8,0.1-17,2.4-20c2.4-3.1,2.2-6.2,2.1-8.6c-0.2-3.2-0.3-5.5,5.2-8.7c5.3-3.1,10.7-10.7,15.5-17.4c2.6-3.6,5.9-8.3,7.8-9.9
		c0.1,0.2,0.1,0.5,0.2,0.9c1.2,8.2,4.7,10.6,7.5,11.2c4.5,0.9,9.9-2.6,13.8-8.9c3.4-5.5,1.6-10.9,0.1-15.1c-1.4-4-1.8-5.7-0.5-7
		c1-1,5.2-1.7,8.5-2.3c7-1.1,14.9-2.4,17.7-8.2c1.8-3.6,1.2-8.1-1.8-13.8c-3.1-5.9-3.3-8.4-2.9-9.4c0.4-1.2,2.2-1.9,5-2.9
		c4.6-1.7,11-4,14.5-12.1c3.1-7.1,4.6-13,5.9-18.1c1.8-7.1,3-12.2,7.6-17.1c3-3.2,6.8-3,10.4-2.8c3.1,0.2,6.3,0.4,8.5-1.9
		c1.7-1.9,2.3-4.7,1.7-9.3c-1.4-11.4,1.7-13,13.6-18.6c2.5-1.2,5.3-2.5,8.4-4.1c13.7-7.1,19.6-15.4,25.9-24.1
		c2.3-3.2,4.6-6.4,7.5-9.8c7-8.3,10.3-10.6,11.7-11.3c0,0.4,0,1.1-0.1,2c-0.8,5.5,0,13,4.9,16.1c2.4,1.5,6.6,2.5,13-1.6
		c7.1-4.6,17.3-5.3,18.7-3.5c0.2,0.2,0,2.1-4.5,6.2c-6.1,5.6-8.6,9.9-8.1,13.9c0.7,5.2,6.1,8,13.1,11.6c1.6,0.8,3.2,1.6,4.9,2.6
		c2.7,1.5,5.4,3.1,7.7,4.7c-7.1-2.3-11.7-1.1-16.1,0c-4,1-7.7,1.9-13.8,0.6c-4.1-0.9-7.7-2.1-10.9-3.1c-8.9-2.9-16.5-5.5-25.8,1.6
		c-4.2,3.2-7.3,6-10.1,8.4c-4.7,4.2-8.1,7.2-13.2,9.2c-1.8,0.7-7.5,2.9-7.7,7.3c-0.1,3,2.1,5.6,6.8,7.9c0.4,0.2,2.4,1.8-0.2,11.7
		c-1.8,6.9-5.1,15.2-7.7,21.8c-1.1,2.7-3.3,7-5.9,12.1c-11.4,22.2-21.1,42.8-16.2,52.7c1.4,2.8,4,4.6,7.4,5.2
		c9.5,1.6,16.7,0.6,21.3-0.1c-6.8,8.5-23.5,20.5-30.8,24.8c-5.8,3.4-11.2,13.6-9.4,21.7c1.1,5,5.3,11.2,18.4,12.3
		c17.2,1.4,22.8-6.7,25.9-11.1c0.4-0.5,0.8-1.2,1.2-1.6c0,0,0.1,0,0.1,0.1c1.7,1.5,3.5,2.2,5.4,2c3.8-0.4,6.4-4.1,9.5-8.4
		c1.6-2.2,3.3-4.5,5.2-6.4c0.8-0.8,1.6-1.7,2.5-2.5c4.2-4.3,11.2-11.5,14.3-11.5c0.2,0,0.2,0,0.3,0.1c1.5,1.5,3.7,2.1,6.1,1.5
		c5.7-1.3,12.6-8.7,15.4-16.5c3-8.4,27.3-23.8,34.1-21.7c5.7,1.8,9.5-3,12.3-6.5c3.7-4.7,4.8-5.3,7-3.8c8.9,6.2,12.6,4.1,20.5-0.6
		c1-0.6,2.2-1.3,3.4-2c6.5-3.7,6.5-9.7,6.4-15.5c-0.1-5.8-0.2-12.4,5.1-19.9c5.4-7.7,17.6-26.2,13-31.5c-1.6-1.8-4.1-1.9-7.6-0.2
		c-2.3,1.2-3.7,1.6-4.4,1.7c0.2-0.9,0.9-2.8,3-6.1c2.4-3.8,2.1-8-0.7-11c-3.5-3.8-9.7-4.6-14.6-1.9c-0.6,0.3-1,0.4-1,0.3
		c-0.1-0.1-0.6-0.7-0.7-2.4c-0.2-3.3,1.3-8,4.4-10.3c4-2.9,4.9-8.6,5.7-13.6c0.4-2.4,1.1-6.5,2-7c0.1-0.1,0.8-0.1,2.2,0.7
		c2,1.1,4.1,1.4,6.1,0.8c4.4-1.4,7.6-6.5,10.1-11.4c-1,2.6-2.4,5.5-3.8,8.2c-4.2,8.5-9,18.1-1.1,22.3c5.7,3,11.6,2.8,15.4-0.5
		c3.9-3.5,4.7-9.4,2.2-15.9c-0.6-1.6-0.8-2.5-0.8-3c1.8,0.4,5.9,3.2,6.7,5.5c1.6,4.2,7.6,7,12.4,7.7c5.5,0.8,10.1-0.5,12.6-3.7
		c3.3-4.2,9.2-7.2,16.7-11c2.3-1.1,4.6-2.3,7.1-3.7c2.1-1.1,3.2-1.1,3.4-1.1c1,1.2-0.8,8.8-6.3,14.3c-5,5-3.2,9.2-2.2,10.8
		c3.2,5,12.2,6.8,20.1,4c1.5-0.5,2.3-0.6,2.7-0.5c0,0.4-0.2,1.3-0.9,2.7c-1.5,2.7-4.2,5.1-6.5,5.6c-2.7,0.7-4.2,1.9-4.5,3.7
		c-0.2,1-0.1,2.9,2.5,4.6c2.8,1.9,8.9,3.5,13.1,1.1c0.3,0.6,0.6,1.4,0.8,2c0.9,2.3,1.9,5.2,4.6,6.1c1.6,0.6,3.5,0.2,5.4-1
		c1.9-1.2,4-0.9,5.1-0.2c0.3,0.2,1,0.7,0.9,1.3c-0.1,1-2,3.1-8.1,4.9c-3.7,1.1-6.7,2.2-6.6,5c0.2,3.1,3.5,3.5,12.1,4.9
		c8,1.2,20.2,3.1,25.6,7.2c1.3,1,2.5,1.9,3.7,2.9c7.6,6.1,13.1,10.4,17.4,8.2c3.5-1.8,3.8-6.9,3.6-11.2c-0.2-5.8,0.9-8.5,1.6-9.4
		c0.5,0.9,1.4,3.4,0.7,8.5c-1.4,10.9,6.3,13.3,11.5,15c4.3,1.4,6.2,2.2,6.5,4.4c0.7,4.6,3.2,7.6,6.9,8.4c5,1,10.7-2.2,14.3-8.1
		c0.7-1.1,1.2-1.3,1.2-1.4c0,0,0.1,0,0.3,0.1c2.3,1.4,4.4,9,1.4,13.9c-1.4,2.2-1.4,4.6,0.1,6.7c5,7.4,28.9,10,41.8,7.7
		c6.8-1.2,17.5-1.4,27.9-1.7c15.3-0.3,24.1-0.6,27-2.8c1.1-0.5,5.8,1,9.3,2.2c8.3,2.7,19.7,6.5,31.2,3.5c17.1-4.4,51.8,5.1,52.2,5.2
		l3.2,0.9l1.2-1238.7L3270.6,904.6z M2143.8,2045.7c-1.5,5-7.5,15.6-12.8,19.5l-1.3,1c-2.8,2.1-6,4.5-8.5,7.2
		C2127.5,2065,2138.7,2050.1,2143.8,2045.7z"/>
</g>
<path class="st2" d="M2144.5,788.1c0,0-20.3,24.3-16.6,23.6c3.7-0.7,12.3-12,15-14.6C2145.5,794.5,2150.8,784.5,2144.5,788.1z"/>
<path class="st2" d="M2119.9,818.4c0,0-9.6,20.6-5,16.6c4.7-4,8-14,8-16.6C2122.9,815.8,2121.6,814.5,2119.9,818.4z"/>
<path class="st2" d="M2102.3,845.7c-1.1,0.1-5.3,0.7-11.6,7.3c-6.3,6.7-0.7,18.6,0,15.6c0.7-3-1.3-6.2,4.3-11.2
	C2100.6,852.4,2108.9,845.4,2102.3,845.7z"/>
<path class="st2" d="M2087.7,882.7c0,0-2,31.3-3.7,41.3c-1.7,10,0,11.6,1.9,9c1.8-2.7,3.1-13,3.5-20
	C2089.6,906,2091.4,881.3,2087.7,882.7z"/>
<path class="st2" d="M2128.2,1702.1c0,0-9.3,9.3-4.7,12.3c4.7,3,12-3.3,12.3-6.1C2136.2,1705.4,2132.5,1700.1,2128.2,1702.1
	L2128.2,1702.1z"/>
<path class="st2" d="M2028.4,1747.4c0,0-18.6,9.3-11.7,15.6c7,6.3,15.6,8.7,18.3,13c2.7,4.3,9.3,5.7,16.3,2.7c7-3,16.3-9,10.6-18.3
	S2041.4,1745.7,2028.4,1747.4z"/>
<path class="st2" d="M2004.7,1801.3c0,0-9,8-2.7,13c6.3,5,9.3-2.3,10.3-4.3C2013.4,1807.9,2011.1,1801.9,2004.7,1801.3z"/>
<path class="st2" d="M1880.6,2085.2c0,0-6-7-17.3,0c-11.3,7,1.7,8.7,5.7,14.6c4,6,14.6,7.3,22,12.3c7.3,5,6.7,12.6,15,12.3
	c8.3-0.3,13,2.3,17.6,8.3c4.7,6,8.3,0.7,2.3-6.7s2.7-4.7,7.7-4.7c5,0,1.3-7.3,15.6-3.3c14.3,4,20.3-6.7,9.3-16.6
	c-11-10-5.7-15.6-5.7-22.6s-11-11.6-14.6-5.7c-3.7,6-5.7-12.5-18.6-2.8c-13,9.7-17.3-7.9-21.6,2.4
	C1893.6,2083.2,1889.6,2088.2,1880.6,2085.2z"/>
<path class="st2" d="M2212.4,2239.3c0,0-21,4.3-19.3,10.7c1.7,6.3,11.7,12.3,17.6,6.3s7-12.6,8.3-17
	C2220.4,2235,2224.1,2232.3,2212.4,2239.3z"/>
<path class="st2" d="M1962.1,2667c0,0-11.3,2-8.7,7c2.7,5,7,5.7,11,3.7c4-2,5-5,3.7-8C1966.8,2666.6,1964.9,2666.3,1962.1,2667z"/>
<path class="st2" d="M1936.9,2672.7c0,0-7.3,6-4.7,10.6c2.7,4.7,9,12.6,13.6,8c4.7-4.7,3-7.2,0-12.6
	C1942.8,2673.3,1938.4,2671.3,1936.9,2672.7L1936.9,2672.7z"/>
<path class="st2" d="M1996.1,2677c0,0-0.3,6-5.3,8c-5,2-7.7,3.7-3.7,4c4,0.3,11.3-1.7,13.3-6.5
	C2002.4,2677.6,2000.4,2674,1996.1,2677z"/>
<path class="st2" d="M1974.8,2689c-1.4,0-2.7,3.6,0,5.6C1977.5,2696.6,1980.1,2689,1974.8,2689z"/>
<path class="st2" d="M1897.9,2691.9c0,0-11.3,0.6-15,9.3c-3.7,8.7,3.7,7.7,7.5,10.3c3.8,2.7,13.1,9,7.5,9.3
	c-5.7,0.3-6.7-10.3-16-2.7c-9.3,7.7-4.3,13.7-1.7,17.6c2.7,4-14,0.7-20.3,5.7c-6.3,5-19.6,12.3-17.6,15c2,2.7,6.7,0.7,16-6.3
	c9.3-7,15.3-6.7,26.3-6.3s12.3,0,17.3-8.3c5-8.3,16-13,21-15c5-2,14-10,12.7-12.3c-1.3-2.3-7.3-2.7-10.7,1.3
	c-3.3,4-18.6,15.3-14.3,9c4.3-6.3,8-11,13.3-14.3c5.3-3.3,6-6,1-9.3c-5-3.3-9.3-5.3-12.3,0c-3,5.3-6.7,3-7,0
	C1905.2,2691.9,1897.9,2691.9,1897.9,2691.9L1897.9,2691.9z"/>
<path class="st2" d="M1822.7,2731.5c0,0-11,7-12,15.7c-1,8.6-4.3,12.6-10.7,12.6c-6.3,0-6,6.3-12.3,14.3c-6.3,8-17.6,24.6-10.7,22
	c7-2.7,17.6-8.3,25.9-17c8.3-8.7,9-16.7,19.6-21.5c10.7-4.8,22.6-17.4,19.4-21.8C1839,2731.5,1834,2728.5,1822.7,2731.5z"/>
<path class="st2" d="M1736.5,2790.1c0,0-12,3-11.7,9c0.3,6,5.7,9.3,11.7,5C1742.5,2799.8,1744.5,2790.5,1736.5,2790.1z"/>
<path class="st2" d="M1687.2,2811.1c0,0-6,2.3-5.7,6.3c0.3,4,0,9.3,5.7,3.7C1692.9,2815.4,1692.2,2811.1,1687.2,2811.1z"/>
<path class="st2" d="M1626.7,2832.4c0,0-16.3,9-8.7,12c7.7,3,12,0.7,16-3.7C1638,2836.4,1638,2830.7,1626.7,2832.4z"/>
<path class="st2" d="M1568.8,2855.7c0,0-7.7-1.3-12,0c-4.3,1.3-16.6,2-6,5c10.6,3,19.6,6.3,27,3.7c7.3-2.7,19-4,22.6-6
	c3.7-2,2-4.7-6.7-4.7C1585.1,2853.7,1571.3,2856,1568.8,2855.7z"/>
<path class="st2" d="M1531.2,2832.1c0,0-19.6-2.3-7.7,6.8c12,9.1,8,2.8-1.3,6.8c-9.3,4-13.3,17-23.6,15.3
	c-10.3-1.7-26.3,2.3-21.6,4.3c4.7,2,10,4.7,13.3,1.7c3.3-3,10.3,3.9,23-1.7c12.7-5.6,4.7-5.6,16-7.6c11.3-2,7.6-0.7,12.3-9
	c4.7-8.3,7.7-15.9,0-16.6C1533.8,2831.4,1531.2,2832.1,1531.2,2832.1L1531.2,2832.1z"/>
<path class="st2" d="M2132.5,2605.1c0,0-6.3,3.7-2,8.3c4.3,4.7,12,3.7,11.6-2C2141.9,2605.7,2138.2,2603.7,2132.5,2605.1z"/>
<path class="st2" d="M2218.7,2566.5c-0.5,0.8-8.7-1-8,4.3c0.7,5.3,1,19,4,16.6c3-2.3,6.7-1.8,10,0.3c3.3,2.1,9-0.9,3.7-6.6
	c-5.3-5.7-2.7-11.3,0-9.7c2.7,1.7,3-2.5-0.7-5.1C2224.1,2563.8,2219.7,2564.8,2218.7,2566.5z"/>
<path class="st2" d="M2246,2557.8c0,0-7.3,2.7-1.3,7c6,4.3,9,5,8,0S2248.3,2556.6,2246,2557.8z"/>
<path class="st2" d="M2263,2576.6c-1.5,0.3-1.3,8.4-10.1,11.8c-8.8,3.4,1.5,7.1,0,10.7c-1.5,3.7-11.7,14.5-5.3,11.4
	c6.4-3.1,12.4-10,17.7-16.7C2270.6,2587.1,2268.3,2575.4,2263,2576.6L2263,2576.6z"/>
<path class="st2" d="M2281.6,2579.4c0,0-6.7,11.4-4.3,14.3c2.3,3,7.7,3,9.3-2.7C2288.3,2585.4,2284.3,2578.4,2281.6,2579.4z"/>
<path class="st2" d="M2490.3,2516.5c0,0-2,8-4.7,10.7c-2.7,2.7,0.7,4.3,4.7,6c4,1.7,9-5,7-10
	C2495.3,2518.2,2494,2513.2,2490.3,2516.5z"/>
<path class="st2" d="M2566.5,2350.1c-1.4,0.6-15.3,9.3-18.3,13c-3,3.7-20,16-11,18.6c9,2.7,12,3.3,8.6,12.6
	c-3.3,9.3-4.7,16.3,3.3,20c8,3.7,9.3,11.3,11,15c1.7,3.7,4-10,6.3-11s4.3-12.6-2-12.3c-6.3,0.3-11.7-6.3-0.7-9.6
	c11-3.3,13,9,16.6,11.3c3.7,2.3,8,10.6,0,15.3c-8,4.7-8,11.3-2.7,12c5.3,0.7,24.6-10.3,21-20.6c-3.7-10.3,1-11,5.7-14
	c4.7-3,8-11.6,11-7.8c3,3.8,15.6-3.8,12-6.8c-3.7-3-2-3,6.3,0s21,3.3,14.3-8c-6.7-11.3-15.3-14.6-5.7-15.6c9.7-1,13.3,9.6,15.6,11.3
	c2.3,1.7,12-5,14.6-9.3c2.7-4.3,4-10.3-4.3-9.7c-8.3,0.7-12.6-9-11-11c1.7-2,9.3-6.7,5-12c-4.3-5.3-4-10-16,0
	c-12,10-11.3,5.3-10.3,0.3c1-5-3-9.6-8.7-13c-5.7-3.3-11,6.7-8.6,10.3c2.3,3.7,4.3,9-1.7,12c-6,3-16.6,1.7-16.6-5
	c0-6.7-4.7-13-10.6-7.3c-6,5.6-8,7.6-4.7,13c3.3,5.3,8.3,10.7,4,9.7c-4.3-1,1.7,7,4.3,11c2.7,4-3,1.3-3,8.7c0,7.3-3.3,20.3-5.7,13
	c-2.3-7.3-2-11-6-12.6c-4-1.7-1.7-7.3,1-12C2582.5,2354.8,2578.8,2345.1,2566.5,2350.1z"/>
<path class="st2" d="M2623.4,2399c0,0-11,5.7-12.6,12.3c-1.7,6.7,4.7,7,11,0c6.3-7,21-9,17.3-12.3
	C2635.4,2395.7,2638.7,2397.4,2623.4,2399z"/>
<path class="st2" d="M2647.1,2269.2c0,0-3.3,14.3-9,16c-5.7,1.7-14.6,3.7-11,9.3c3.7,5.7-3,10.7-7.7,7.3c-4.7-3.3-10,7,0,9.3
	c10,2.3,16.8,12.3,20.2,10.3c3.4-2-1.9-8.3,3.4-11.6c5.3-3.3,2-16.4,8-14.4s7.3,12.7,11.3,9.7c4-3,2.3-16.6,8.3-12.7
	c6,4,7.3,9,11,6.7c3.7-2.3,0-5.7,7-2.3s9,0.3,2.3-6.7c-6.7-7-17.2-9-16.3-13s-9-7.3-12-0.7c-3,6.7-8.3,4.7-6.7,0
	C2657.7,2271.9,2649.7,2266.6,2647.1,2269.2z"/>
<path class="st2" d="M2656,2250.6c-1.3,0.6-10,9.7-3,12.6c7,3,12.6-3,13.3-6.3C2667,2253.6,2660.4,2248.6,2656,2250.6z"/>
<path class="st2" d="M2904.6,2059.5c0,0-9.3,8-7.3,19.6c2,11.6,7,12.3,10,6.3c3-6,6.7-16.3,6-22.3
	C2912.6,2057.2,2907.1,2057,2904.6,2059.5z"/>
<path class="st2" d="M2930.9,2073.6c-1.6,5.3,1.3,8.9-8.3,21.9c-9.6,13-6.5,14-17.4,25.3c-10.9,11.3-6.1,15.6,0,12.3
	c6.1-3.3,16.7-13,19.4-20c2.7-7,4-14,12-18.3c8-4.3,10.3-9.7,7.3-14C2940.9,2076.5,2932,2070.2,2930.9,2073.6z"/>
<path class="st2" d="M2969.2,2060.5c0,0-10.6,0-9.3,9.7c1.3,9.6,13.3,11,18.3,8.3c5-2.7,17-3.1,12-8.4S2976.5,2057.9,2969.2,2060.5z
	"/>
<path class="st2" d="M2135.9,1285.8c0,0-10.9-10.4-15.1,0c-4.2,10.4,8.2,22.9,18.2,25.5c10,2.7,5.1,6,4,11.1
	c-1.1,5.1,6.9,7.8,10.2,12.4s-0.4,12.4-2.9,18.2c-2.4,5.8,3.8,10.2,8.9,13.1c5.1,2.9,2.7-7.6,6.9-12.4c4.2-4.9,7.8-12,0-18
	s-17.1-5.8-14.9-19.3c2.2-13.5-1.6-21.3-5.9-24C2141,1289.8,2135.9,1285.8,2135.9,1285.8L2135.9,1285.8z"/>
<path class="st3" d="M3282.7,1223.8c-7.3,9-20-1.4-23,14.5c-3,15.8-7.3,18.8-20,17.8c-12.7-1-14.7,6.7-20.6,12
	c-6,5.3-26.9,29.3-43.3,28c-16.3-1.3-12,25.3-35.9,22c-24-3.3-34.3,6.6-49.6,16.1c-15.3,9.5-30,14.2-43.9,14.5
	c-14,0.3-17.6,1.3-27.3,7c-9.6,5.7-19.6,1.3-31.6,1.3c-12,0-9,3.7-24,15.6c-15,12-17.6,14.3-33.6,17c-16,2.7-42.9,1.7-52.9,14.7
	c-10,13-26.1,5.5-30.3,16.6c-4.2,11.1-5.4,14.4-16.1,9.7c-10.7-4.8-15.9-3.3-20.1,6.9c-4.1,10.2-1.1,29-17.1,26
	c-16-3-24.3-2-36.6,10.3c-12.3,12.3-34.2,35.3-43.5,39.3c-9.4,4-6.7,13.6-28,13c-21.3-0.7-32.6-14-53.9-9.3s-42.8,16.6-56.7,22.3
	c-13.9,5.6-47.5,29.9-63.8,34.3c-16.3,4.3-41.8-0.4-60.2,10c-18.4,10.4-32.6,2.3-39.6-8.3c-7-10.7-17.9-30.2-38.3-13.8
	c-20.4,16.4-36.4,26.2-38.6,47.1c-2.2,20.9-4.3,55.3-18.4,70c-14,14.7-26.9,27.6-28.2,60c-1.3,32.4-1.8,36.8-19.1,51.5
	c-17.3,14.6-28,29.7-13.8,49.7c14.2,20,27.5,32,14.2,40.8c-13.3,8.9-10.8,28-20.7,30.6c-9.9,2.7-54.2-5.8-63.8,9.8
	c-9.6,15.5-22,31.9-37.5,9.9c-15.5-21.9-14.2-35.6-32.8-27.4c-18.6,8.2-34.2,9.8-31.5-7.6c2.7-17.5-16.4-10.2-23.1-11.6
	c-6.7-1.4-16-9.9-9.3-22.7c6.6-12.9-2.3-29.3-2.3-29.3v-6.5"/>
<path class="st3" d="M2785.5,1160.9c0,0-0.6,53.2-12.9,65.2c-12.4,12-5.7,18.7-28.3,25.3c-22.6,6.6-24.5,13.3-30.9,27.9
	c-6.4,14.6,4.7,32-28.1,41.9c-32.8,10-41.5,7.6-53.8,19.6c-12.3,12-30.7,19.7-42.6,20.5c-11.9,0.8-19.3,12.1-28.3,32.9
	c-9,20.8-28.3,51.4-45.6,33.4c-17.3-18-21.3-33.4-41.6-18.3c-20.3,15-27,26.7-22.3,35.7c4.7,9,9.1,29.6-1.4,21
	c-10.6-8.7-9.9-3.7-14,0.7c-4.2,4.3-13.8,1-10.8-10.6c3-11.7-7.3-11.3-12.3-2.3s-2,14-12,14.8c-10,0.9-14,6.5-7.6,16.5
	c6.3,10,8.6,16-1,20.6c-9.7,4.7-18,10-4.3,17c13.6,7,10,12.1,6,16.2c-4,4.1-13.2,17.6-13.2,17.6"/>
<path class="st3" d="M2026.7,1471.5c0,0-2.3,14.7-15.5,14.6c-13.2-0.2-21.7,7.6-26.6,10.7c-4.9,3.1-18.3-5.8-21.6,4
	c-3.3,9.8-17.3,14.5-17.3,14.5"/>
<path class="st3" d="M2510.7,1210.2c0,0-12-21.3-38-24.4c-26-3.1-40.8-20.4-55-28.8c-14.2-8.5-30.6-11.6-42.6,4
	c-12,15.5-29.7,21.8-30.6-4c-0.9-25.8-13.3-24.9-27.1-24.9s-26.3-5.8-36-14.7c-9.7-8.9-26.5-12.9-28.8,9.3
	c-2.2,22.2-10.7,20.4-28,20.4c-17.3,0-37.3-12.5-45.3-17.3c-7.9-4.9-7.6,2.7-16.9,6.7c-9.2,4-36.3,6-42.6,13.4
	c-6.2,7.4-39.1,36.7-27.6,60.2c11.5,23.5,33.5,32.5,33.5,32.5"/>
<path class="st3" d="M2231.4,1002.8c0,0,1-29,17-27c16,2,44.6,14,54.2,10.3c9.6-3.7,22.3-12.3,36.9-4.7c14.6,7.7,22.9,12.3,33.9,9.7
	c11-2.7,16,4.7,20.7,7.3c4.7,2.7,32.6,12,47.9,4.3c15.3-7.7,26.1-8.9,38.9-9c12.8-0.1,23.6,2.3,24-11.3s13-21,28.9-20.6
	c16,0.3,20-3.7,30,7c10,10.7,23,15.3,30.6,2.7c7.7-12.6,25.6-14,35.6-13.3c10,0.7,17.3-1,25-12c7.7-11,19.6-20,34.3-21.6
	c14.6-1.7,26-5.3,24.6-21.3s-1-62.9,2.7-68.6c3.7-5.7,12.3-17.3,16.6-13.3c4.3,4,21,1.3,16.6-10.3c-4.3-11.6,5.7-19,8-24
	c2.3-5,14.8-29.6,14.8-29.6"/>
<path class="st3" d="M2750.5,813.6c0,0,11.7-3.8,15.7-10.8c4-7,24.3-27.6,24.3-27.6"/>
<path class="st3" d="M3236.1,1932.4c0,0,10.6-15.3,5.3-33.6c-5.3-18.3-2.6-32.9,4.1-44.9c6.7-12,9.2-31.6,4.8-49.6
	c-4.4-18-7.9-38.6-34.9-54.2c-27.1-15.6-62-36.3-72-44.6c-10-8.3-12.7-16.4-36.3-16.9c-23.6-0.4-37.6-6.1-44.9-18.4
	c-7.3-12.3-9.7-20.6-32.6-25c-23-4.3-15.7-19.8-30.3-8.7c-14.6,11.2-33.9,10.7-39.3-11c-5.3-21.6-12.1-46.6-26-49.6
	c-13.9-3-20.2,6.3-29,14c-8.8,7.7-28.5,21-42.1,14c-13.6-7-11.6-23-9.3-32.3c2.3-9.3-19-11.9-31.9-1.9c-13,9.9-33.3,10.3-35.9-4.7
	c-2.6-15-13-23.3-20-12.7s-15.3-11.2-27.9,4.2c-12.7,15.4-19.8,15.4-23.7-2.9c-3.9-18.3-16.4-28.8-16.4-28.8"/>
<path class="st3" d="M2663.9,1641.1c0,0-12.3,12.7-11.7,34.1c0.6,21.4,5.1,25.8-10.9,28.5c-16,2.7-26.6,12.2-31.9,21.9
	c-5.3,9.6-31.5,45.1-47.9,53.6c-16.4,8.4-35.3,17.7-54.5,22.2c-19.2,4.5-30.3,16-26.7,27.5c3.6,11.5-0.9,23.5-14.2,31.5
	c-13.3,8-18.2,21.6-11.1,35.2c7.1,13.6,4,27.7-14.6,35.1c-18.6,7.4-24-1.1-41.7-7.5c-17.8-6.4-33.2-11.8-44.6,5.2
	c-11.4,17.1-36.6,27.4-57.7,18.1c-21.1-9.3-38.4-19.1-52.2-1.8c-13.8,17.3-26.6,21.3-30.6,32.8c-4,11.5-3.1,17.8-14.2,24.9
	c-11.1,7.1-12.9,18.6-21.7,24.4c-8.9,5.8-19.2,7.8-19.2,7.8"/>
<path class="st4" d="M2876,800.8c0,0-2,20,0,34.6c2,14.6-0.7,31.2-4.7,46.2c-4,15-6.7,82.2-7.3,93.6c0,0,0,16.6-4.7,19.3
	c-4.7,2.7-4,26.6-4.7,35.3c-0.7,8.7,2.2,15.8-12,22.9c-14.2,7.1-15.1,20-15.5,40.4c0,0-3.6,18.2-3.1,30.8c0.4,12.6,3.5,49.9,0,66.3
	c-3.5,16.4-13.9,49.8-20.2,61.3c-6.2,11.4-28.8,47.4-31.3,55.4c-2.6,8-3.9,39.5,22.7,71.9c26.6,32.4,52.4,56.8,81.4,71.9
	c29.1,15.1,58.5,63,63.3,70.1c4.8,7.1,11.7,40.9-3.9,45.7c-15.6,4.9-25.9,15.5-31.2,39.5c-5.3,24-19.5,34.6-24.4,40.8
	c-4.9,6.2-18.2,6-19.5,37c-1.3,30.9,4.4,46.9-19,64.2c-23.4,17.3-49.1,39-59.5,58.4c-10.4,19.5-18.7,66.7-8,77.3
	c10.7,10.7,19.8,20,17.7,36.4c-2.1,16.4,10.5,20.1,30.6,23.2c20.1,3,59.7-4.6,74.6-13.7c14.9-9.1,27.6-23.2,61.3-20.1
	c33.7,3.1,53.2-4.5,63.5-16s36.4-43,60.4-57.2c24-14.2,43.5-27.1,59.5-43.9c16-16.9,32.8-34.6,39-42.4c6.2-7.8,26.3,2,45.3,7.6
	c19,5.5,40.7,27.3,53.4,44.1"/>
<path class="st4" d="M2833,1941.2c0,0,11.5,18.9,0,23.4s-38.2,28-9.8,42.4c28.4,14.4,27.5,29.5,9.8,41.9c-17.7,12.4-43.5,2.7-56.8-8
	c-13.3-10.6-35.5-4-39.1,20.4c-3.5,24.4-27.5,49.8-24,61.3c3.6,11.5,11.5,15.9,11.5,15.9"/>
<path class="st4" d="M2830.2,2050.6c0,0,3.4,30.8,0,42"/>
<defs>
	<filter id="Adobe_OpacityMaskFilter" filterUnits="userSpaceOnUse" x="1804.8" y="621.8" width="1480.3" height="2072.2">
		<feColorMatrix  type="matrix" values="1 0 0 0 0  0 1 0 0 0  0 0 1 0 0  0 0 0 1 0"/>
	</filter>
</defs>
<mask maskUnits="userSpaceOnUse" x="1804.8" y="621.8" width="1480.3" height="2072.2" id="path-49-outside-1_0_1_00000177473157805603481920000012663441425421117356_">
	<rect x="1804.3" y="621.3" class="st5" width="1520" height="2073"/>
	<path d="M3271.6,2026.5c0,0-1.2,30.9,0,28.9l38.3,98.7c-35.4,3.6-78.3-2.1-60-28.5c-10-5-49.4,7.2-62.8-2.5
		c-13.8-4.4-11.6,1.7-35.8,0.7c-22.9-0.9-54,9.1-70.8-6.7c-4.2-6,4.8-13.1-0.5-19.6c-6.1,11.2-21.9,13.2-24-0.7
		c-3.1-4.6-15.6-3.6-17.6-12.8c-3.2,15-16.7,3.8-26.1-4l-0.6-0.5c-11.4-9.2-63.7-5.2-23.7-23.1c-8.2-0.2-11.5,6.1-16-6.3
		c-6.4,2.5-17.4-1.7-16.2-7.9c-0.1-4.2,9.8-5.2,11.2-9.9c-13.3,5.5-31.1-4.6-19.4-17.2c4-4,5.9-9.2,6.1-11.6
		c-23.7,8.4-34.3,34.8-55.3,7.3c10.6,29-38.1,25-21-2.4c-3.3,2.3-7.4,2.1-10.8,0c-1.8,20.9-11,18-11.3,29.7
		c12.2-6.4,24.7,7.3,15.1,18c22.3-8.1,8.1,19.3-2.5,33.2c-10.6,13.1,2.2,26-11.9,35.7c-9.1,5.1-14.6,10.4-25.5,2.5
		c-4.6-1.4-9.4,14.6-18.8,10.5c-6.3-1.9-29.5,13-32.3,20.8c-2.9,8.2-10.3,16-16.4,17.4c-2.7,0.6-5.1,0.1-7-1.5
		c-11.9,3.2-24,35.1-36.3,27.2c-35.8-6.7-71.1,5.7-37.1-24.6c6.4-3.7,20.1-13.5,27.7-21.4c-59.8,8-3.6-61.1,3.1-92.3
		c6-17.5-5.8-9.8-6.3-20.7c3.9-11.3,14.4-8.2,21.4-17.5c26.2-28.4,38.9,0.6,70.3-9.2c-22.1-10-26.6-17.5-7.5-35.4
		c-15.5-1.6-35.8,22.3-36.4-10.6c-15.5,13.2-20.7,32.6-42.6,43.4c-31.2,14.4-15.8,8.6-23.2,31.7c-5.1,5.5-14.4-0.6-18.9,4.7
		c-12.5,17.2-6.1,43-32.7,49.7c11.2,28.2,5.6,28-21.8,34.2c-0.9,5.7,6.1,14.1,0.6,21.8c-7.4,11.6-19.7,15-23.6-0.8
		c-6.5,7.9-13.8,20.8-21.6,25.4c-4.7,2.8-4.6,4.3-4.4,7.4c0.4,8-8.3,18.9-4.4,28.8c7.7-6.4,12.1-4.3,17.2,0.3
		c6.8,7,31.1,13.1,27.3,27.8c-8.2,31.4-39.7,5.8-45.5,48.4c-2.3,11.6-8.4,23.9-16.4,22.6c-1.2,9.7-8,15.1-15.8,14.7
		c-17.5-1.7-22.2,27.8-38.9,22.1h0c-2.9-0.5-3.1-0.6-4.4,3.2c-10.8,25.7-35.9,22.5-43.5,31.2c-2.6,5.3,7.4,14.8,4.4,21.3
		c-4.8,13.7-23.6,16.7-33.8,26.7c-15.5,13.4-14.7,7.9-27.9,8.1c2.2,12.3-4.2,26.3-17.3,23.4c7.3,20.7-31.3-4.4-43.3,17.9
		c9.2-5.2,25.8,5.3,25.6,16c-2.6,11.9-21.1,10.2-29.1,17.7c-1.9,14.1-26.1-1.3-29.5,15.6c-5.7,15.4-13.9-0.4-19.6,18.4
		c-9.9,19.6-25.5,7.5-14.2-11.1c-15.3,5.6-22.3,22.9-42,28.5c-15.7,4.6-26.4,10-34.9,12.2c-11.5,2.8-8.1-0.6-21.9,5.7
		c-14.9,6.2-15,13-28.9,17.9c-4.9,1.8-11.6,3-13,2.9c-10.4,17.4-47.6,10.7-54.8,25.3c-5.5,19.8-37.4,7.5-43.4,23.5
		c-2.2,7-6,10.7-10.4,11.9c-6.9,4.9-40.9,7.4-45.6,10.9c-4.7,3.6-21.7-0.7-29.6-7.1c-7.8-6.4-8.6-14.3,0-15.7
		c8.6-1.4,65.3-18.7,65.3-18.7c1.2-2.3,1.9-4.7,1.9-7.1c1.6-12.2,6.3-13.6,12.8-14.3c16-3.1,34.2-19.5,49.3-9.8
		c0.8-39.5,46.8-24.7,49.2-31.6c3.4-9.9-4.2-13.3,4.6-17.7c7.9-4.9,30.1-26.4,40.3-34.8c10.7-9.9,18.6-3.8,26.2-7.6
		c12.4-13.5,23.2-1.9,15.4,14.5c5.9,1,20.4-5.6,26.8-7.9c-18.2-26.8,8.3-29.4,36.4-24c-2.2-2.1-6.9-5.1-11.8-5.9
		c-17.4-5.7-5-15.1,14-25.4c12.2-8.6,21.2-21,34.5-28.5c5.3-5.8,10.5-2.6,17.2,2.4c-5.8-9.3-12.4-16.3-3.1-22.5
		c9.8-8.2,38.4-39.3,45.1-47.9c4.8-6.8,10.2-3.6,15-0.5c-2.1-4.8-3.7-11.5-4.5-17.4c-2.5-30.5,7.1-37.7,10.2-40.1
		c4.7-3.5,5.5-5.2,5.7-5.6c-17.6-8-13.7-31.5,2.2-44.8c13.8-11.3,13.4-17.4,22.5-29.5c-13.6,13.4-21.8,12.4-36.9,21.8
		c-22.1,15.9-45.3,19.3-54.5-12c-2.3,6.2-7.1,12.3-3.5,18.9c6,9,8,27.4-7.2,26.5c-9.4-2.8-25.9-24.8-31.3-39.2
		c-2.2-5.8-5.1-9.4-7.8-9.8c-6.7,1-7.5,11.6-15.6,11.9c-4.8,0.4-20.1-9.6-24.4-18.3c-1.4-2.8-4.9-3.8-7.4-1.9
		c-8.7,6.5-19.8,13.8-24.4,15.7c6.8-0.9,15.4-8.9,17.8-4.8c3,3.2,0.1,8.3-0.4,11c-3.4,18.9-25.2,31.2-33.8,6.6
		c-12.7,14.2-30.3,17.2-44.6,4v0c-1.7-1.4-5.8-4.8-4.1-8.6c0.3-0.8,1.8-3.2,5.6-2.5c15.4,3.1,17.8-35.1,14.2-38.2
		c-21.5-0.8-18.1-23.6-2-35.5c7.6-3,0.2-36.6-15.3-52.3c-7.3-5.8-13.6-16.1-4.2-24.6c-2.7-2.4-7.9-8-10.3-13.3
		c-0.9-2-3.5-2.6-5.2-1.1c-0.5,0.5-1.1,1-1.7,1.5c-2.5,2.2-2.8,6-0.6,8.5c31.7,36-72.8,60.9-93.1,42.6c-4.3-8.7,3.3-15.5-1.2-25.9
		c-6.6-18.4-12-26.7-26.3-27.3c-19.5,0.8-24.1-8.9-12.2-20.9c-21.4-0.2-27.1-7.9-5.5-26.7c3.3-2.9,11.3-11.9,18.2-18.2
		c-1.7-0.1-3.5-0.4-5.8-0.8c-19.8-3.7-5.5-22.3-17.1-30.2c-7.8,14.9-14.5,17.5-24.6-0.8c-2.3-5.7-10.2-10.5-7.6-15.8
		c1.5-0.6-0.3-15.7-1.9-16.3c-6.5,0.2-21.6-0.1-19.8-9.9c0.5-8.3,9-11.4,14.4-13.8c3.2-5.3-11.4-12.2-6.2-19.6
		c10.7-9.2,30.7,17.9,19.1-8.6c-9.3-13.2,17.1-35.8,22.1-50.6c6-13.5,9.3-20.8,15.6-22.2c7-3,18.4,13.1,23.2,8.9
		c-1.6-5.5-4.4-7-2.1-11.9c-15.4,4.8-17.3-14.8-7.9-20.7c1.6-2.1,4.8-0.7,6.9,0c-21-13.5-9.6-25.3,10.7-28
		c-17.7-8.2-2.6-23,7.5-26.7c18.7-3.3,48.4,10.6,38.1,29.8c32.4-3.5,39.9-23.3,58.3-47.5c8.5-12.9,12-25,19-29.6
		c7.2-4.4,4.2,26.7,15,26c18.7,0,32,2.3,48.3-27.8c15.2-28.6-7.2-43.2-13.1-64.2c-1.5-9.7,3.5-19.4-9.6-21.8c-3-0.8-12-3-11.1-9.2
		c1-6.5,12.4-7.6,18.2-7.3c14.4,3.7,33.3-14.2,17-28.7c-3.3-3.1-5.6-9.5-8.1-11.6c-7.4,2.8-12.6,31.4-28.8,14.8
		c-6.8-6.3-10.4-4.3-16.3,3.5c-7.8,12.1-33.3,26.7-33.9,40.1c-0.1,8.6-9.3,16.3-16.5,10.7c-12.2-19.3,13.4-15.4-20.1-38.4
		c7,8.3,16.2,24.6,3.7,28.5c-3.2,0.4-6.2-1.5-9-5.7c-3.2-4.8-12.9-11-41.6-13.9c-13.1-0.9-22.1,9.7-35.5,13.7
		c-10.5,3.8-16.4,1.2-22.8-1.5l0,0c-5.7-4.1-28.2-6.3-35.4-4.1c-8.3,3.3-16.7-7.5-24.5-14.1l0,0c-9.4-8.4-16.2-14.5-10-28.2
		c4.7-11.1-14.4-31.1-21.1-42.9c-10.6-19.7,15.4-21,14.6-4c1.6,0.5,5.1-0.7,6.7-3.4c7.3-10.4,24.8-2,31.2,6.3c5.4,4.5-1.8-5.7-3.5-7
		c-18.1-24.5-21.4-3.7-51.7-16c-19.2-5.7-52.1-22.6-57.4-38.7c-0.2-12.4,20.5-37.3,34.3-40c5.1,0.1,7.6,3.2,10,5.6
		c17.3,6.4,13.8-22.1,36.8-33.1c38.3-26.3,24.6,6.5,50-0.6c-3.5-4-13.2-8.8-11.1-15.2c7.9-23.6,34.5-18.1,52.5-34.5
		c17.2-17.4,80.5-37.2,58.1,9.5c-6.7,8.4,0.1,23.5-9.5,30.1c7.6,1,11,9.7,13.9,16.1c15.2,4,46.7,0.3,63.9,2.3
		c20.9-0.5,24.4,0.9,34.3,15.2c4.8,0.1-4.9-7.3,3.4-17.7c7.9-24.8,33.1-27.9,33.7,2.2c1.2-8.5,5-20.5-0.5-27.6
		c-6.2-7.3-29.4-15.6-15.2-26.3c20.1-11.2,35.4,25.6,55.2,11.9c12.9-10.6,26.2-3.7,37.1-10c1.7-4.9-1.4-21.6-11.1-21.8
		c-20.9-2.5-30.9,30.6-48.4,7.5l-0.1-0.1c-1.8-2-5.2-5.5-6.4-5.5c-15.8,10.3-19.2-2.7-9.3-15.9c-8.2,5.5-10.4,28.5-20.3,27.8
		c-7,0.2-14-6.2-18.8-14.5c-3.2,5.4-5.1,10.1,1.1,12.2c5.4,2.5,12.6,7.8,12.8,14.1c1.6,6.6-6.6,12.4-7.5,19.8
		c-0.3,5.3-4.2,10.5-9.9,7.2c-21-11.1-5.5-19.5-7.3-32.4c-5.9-5.2-15.2-11.5-8.9-20.9c-34.2-7.8-18.4-51.8,15.4-27.9
		c2-5,6.3-8.6,13.6-9.4c-10.8-23.8-48.2,12.4-43.1-21.5c-3.7,5.3-11.9,3.7-14.6,8.6c-6.5,13.5-27.4,1.4-41.2-2.1
		c-35.3-11-1.6-53.1-35.1-68.7l0,0c-5.9-4.2-12.1-8.5-16.4-16.2c-8.4-15-48-42.6-58.7-47.5c-9.5-4.4-31.1-18.9-33.9-25.3
		c-13.5-23.4-30.7-14.3-33-24.1c1.5-30.1,46.3-13,26-64.8c-18.2-46.5,94.6,25.8,167.2-79.5c-7.8,3.2-8.8-4.9-7-13.9
		c1.6-9.7,3.6-40.5,3.6-40.8l0.2-2.6c10.8-3.3,10,2.4,9.9,22c8.2-10.3-3.7-21.7,7.6-28.6c-4.4-2.4-7.3-2.2-12-4.7
		c-5.3-3.9-11.9-9.3-0.4-19.5c16.3-17.3,32.5-10.1,15.8,2.9c5.5-4.2,11.6-6.8,13.1-8.8c5.7-8.1,12-12.1,17.5-11.6
		c-9.3-10.2,2.8-15.3,6.3-27.1c-17.2,16.6-9.9,15.9-22,31.3c-3.1,4-9.5,1.5-9.1-3.5c0.2-2,0.8-4.3,1.9-7.1
		c3.3-7.2,11.2-18.7,27.4-38.1c5.1-4.3,25.5,7.3,22.9,15.2c11.8-9.6,28.7-15.7,41.6-26.3c12.5-11.1,26.1-21.2,37.4-30.2l0,0
		c3.2-3,6.4-6.1,10.5-5.1c4.2,1.6,6.5,3.1,7.5,3.9c-0.5-0.6-1.1-1.5-1.8-3c-11.3-20.2-5.6-32.8,23-47c19.5-8.2,25-8.7,28.4-6.9
		c7,6.2,2.3,10.5-6.5,15.3c12.4-3.9,19.7,8.8,33.3,5.5c17.4-4.2,27.7-18,45.9-26.2c14.2-7.1,16.3-14.5,18.6-22.4
		c5.5-15.8,13-31,33-35.1c16.5-3,34.8,3.5,35.6,20.8c52.7-14.4,21.6,44.9,1.9,33.9c-1.8,14.9-4.8,7.2-14.4,14.4
		c-5.4,4.3-6.7,8.5-2,8.9c6-1.8,10,3.9,15.4,2.8c7.7-2.4,9.2,5.6,11.4,9.4c11.4-11,16.2-5.8,21,7.6c0.4-0.7,0.7-2.3-0.1-4.2
		c-4.2-10.9-0.5-10.7-5.8-24.1c-4.6-12.4,0.8-16.8,5.6-20.7l0,0c7.2-4.8,12-20.1,20.2-20.6c21.2-2.5,36.8,28,17.6,42.1
		c6.4,1.9,23.8,5.6,27,9.6c13-11.8,20.2-21,30.4-5.2c1.1-21.9,26.7-6.7,37,1.5c4.7-6.8,12-2,21.8-4.1c28.7-4.7,27.2,22.5,6.9,30.6
		c8,4.2,31.3,11.9,26.6,16.5c20.9-7.5,27.6,13.2,5,21c11.2,6.3,19.6-6.4,30.7-10.6c13.4-6.4,19.4,4,30.6,0.4
		c12-5.7,26.7,0.1,21.9,13.2c9.5-6.7,12.7-4.6,15.4-0.2c15.5-15.7,37.8-15.3,50.2,6.2c13.3,0.9,31.7,9,45.1,15.7
		c14,8.1,36.4,13.6,49.1,22.4c20.3,16.7,35.3-25.5,57.5-0.7c10.6,8,15.4,14,31.1,13.5c9.9-0.7,22.7,4,12.8,14
		c12.2,2.6,18.5-11.1,31.9,3.4c20.7-16.5,50-21.4,78.7-7.8c-4.6-15.4,22.7-16.6,31.9-8.6c9.4,6.7,22.6,3.9,30,16
		c5.5,11.5,38.4,32.6,54.8,45.1c7.1-12.1,14.4,12.2,14.4,12.2V2026.5z"/>
</mask>
<path class="st6" d="M3271.1,2154.3c-35.4,3.6-39.5-2.3-21.1-28.6c-10-5-49.4,7.2-62.8-2.5c-13.8-4.4-11.6,1.7-35.8,0.7
	c-22.9-0.9-54,9.1-70.8-6.7c-4.2-6,4.8-13.1-0.5-19.6c-6.1,11.2-21.9,13.2-24-0.7c-3.1-4.6-15.6-3.6-17.6-12.8
	c-3.2,15-16.7,3.8-26.1-4l-0.6-0.5c-11.4-9.2-63.7-5.2-23.7-23.1c-8.2-0.2-11.5,6.1-16-6.3c-6.4,2.5-17.4-1.7-16.2-7.9
	c-0.1-4.2,9.8-5.2,11.2-9.9c-13.3,5.5-31.1-4.6-19.4-17.2c4-4,5.9-9.2,6.1-11.6c-23.7,8.4-34.3,34.8-55.3,7.3
	c10.6,29-38.1,25-21-2.4c-3.3,2.3-7.4,2.1-10.8,0c-1.8,20.9-11,18-11.3,29.7c12.2-6.4,24.7,7.3,15.1,18c22.3-8.1,8.1,19.3-2.5,33.2
	c-10.6,13.1,2.2,26-11.9,35.7c-9.1,5.1-14.6,10.4-25.5,2.5c-4.6-1.4-9.4,14.6-18.8,10.5c-6.3-1.9-29.5,13-32.3,20.8
	c-2.9,8.2-10.3,16-16.4,17.4c-2.7,0.6-5.1,0.1-7-1.5c-11.9,3.2-24,35.1-36.3,27.2c-35.8-6.7-71.1,5.7-37.1-24.6
	c6.4-3.7,20.1-13.5,27.7-21.4c-59.8,8-3.6-61.1,3.1-92.3c6-17.5-5.8-9.8-6.3-20.7c3.9-11.3,14.4-8.2,21.4-17.5
	c26.2-28.4,38.9,0.6,70.3-9.2c-22.1-10-26.6-17.5-7.5-35.4c-15.5-1.6-35.8,22.3-36.4-10.6c-15.5,13.2-20.7,32.6-42.6,43.4
	c-31.2,14.4-15.8,8.6-23.2,31.7c-5.1,5.5-14.4-0.6-18.9,4.7c-12.5,17.2-6.1,43-32.7,49.7c11.2,28.2,5.6,28-21.8,34.2
	c-0.9,5.7,6.1,14.1,0.6,21.8c-7.4,11.6-19.7,15-23.6-0.8c-6.5,7.9-13.8,20.8-21.6,25.4c-4.7,2.8-4.6,4.3-4.4,7.4
	c0.4,8-8.3,18.9-4.4,28.8c7.7-6.4,12.1-4.3,17.2,0.3c6.8,7,31.1,13.1,27.3,27.8c-8.2,31.4-39.7,5.8-45.5,48.4
	c-2.3,11.6-8.4,23.9-16.4,22.6c-1.2,9.7-8,15.1-15.8,14.7c-17.5-1.7-22.2,27.8-38.9,22.1h0c-2.9-0.5-3.1-0.6-4.4,3.2
	c-10.8,25.7-35.9,22.5-43.5,31.2c-2.6,5.3,7.4,14.8,4.4,21.3c-4.8,13.7-23.6,16.7-33.8,26.7c-15.5,13.4-14.7,7.9-27.9,8.1
	c2.2,12.3-4.2,26.3-17.3,23.4c7.3,20.7-31.3-4.4-43.3,17.9c9.2-5.2,25.8,5.3,25.6,16c-2.6,11.9-21.1,10.2-29.1,17.7
	c-1.9,14.1-26.1-1.3-29.5,15.6c-5.7,15.4-13.9-0.4-19.6,18.4c-9.9,19.6-25.5,7.5-14.2-11.1c-15.3,5.6-22.3,22.9-42,28.5
	c-15.7,4.6-26.4,10-34.9,12.2c-11.5,2.8-8.1-0.6-21.9,5.7c-14.9,6.2-15,13-28.9,17.9c-4.9,1.8-11.6,3-13,2.9
	c-10.4,17.4-47.6,10.7-54.8,25.3c-5.5,19.8-37.4,7.5-43.4,23.5c-2.2,7-6,10.7-10.4,11.9c-6.9,4.9-40.9,7.4-45.6,10.9
	c-4.7,3.6-21.7-0.7-29.6-7.1c-7.8-6.4-8.6-14.3,0-15.7c8.6-1.4,65.3-18.7,65.3-18.7c1.2-2.3,1.9-4.7,1.9-7.1
	c1.6-12.2,6.3-13.6,12.8-14.3c16-3.1,34.2-19.5,49.3-9.8c0.8-39.5,46.8-24.7,49.2-31.6c3.4-9.9-4.2-13.3,4.6-17.7
	c7.9-4.9,30.1-26.4,40.3-34.8c10.7-9.9,18.6-3.8,26.2-7.6c12.4-13.5,23.2-1.9,15.4,14.5c5.9,1,20.4-5.6,26.8-7.9
	c-18.2-26.8,8.3-29.4,36.4-24c-2.2-2.1-6.9-5.1-11.8-5.9c-17.4-5.7-5-15.1,14-25.4c12.2-8.6,21.2-21,34.5-28.5
	c5.3-5.8,10.5-2.6,17.2,2.4c-5.8-9.3-12.4-16.3-3.1-22.5c9.8-8.2,38.4-39.3,45.1-47.9c4.8-6.8,10.2-3.6,15-0.5
	c-2.1-4.8-3.7-11.5-4.5-17.4c-2.5-30.5,7.1-37.7,10.2-40.1c4.7-3.5,5.5-5.2,5.7-5.6c-17.6-8-13.7-31.5,2.2-44.8
	c13.8-11.3,13.4-17.4,22.5-29.5c-13.6,13.4-21.8,12.4-36.9,21.8c-22.1,15.9-45.3,19.3-54.5-12c-2.3,6.2-7.1,12.3-3.5,18.9
	c6,9,8,27.4-7.2,26.5c-9.4-2.8-25.9-24.8-31.3-39.2c-2.2-5.8-5.1-9.4-7.8-9.8c-6.7,1-7.5,11.6-15.6,11.9
	c-4.8,0.4-20.1-9.6-24.4-18.3c-1.4-2.8-4.9-3.8-7.4-1.9c-8.7,6.5-19.8,13.8-24.4,15.7c6.8-0.9,15.4-8.9,17.8-4.8
	c3,3.2,0.1,8.3-0.4,11c-3.4,18.9-25.2,31.2-33.8,6.6c-12.7,14.2-30.3,17.2-44.6,4v0c-1.7-1.4-5.8-4.8-4.1-8.6
	c0.3-0.8,1.8-3.2,5.6-2.5c15.4,3.1,17.8-35.1,14.2-38.2c-21.5-0.8-18.1-23.6-2-35.5c7.6-3,0.2-36.6-15.3-52.3
	c-7.3-5.8-13.6-16.1-4.2-24.6c-2.7-2.4-7.9-8-10.3-13.3c-0.9-2-3.5-2.6-5.2-1.1c-0.5,0.5-1.1,1-1.7,1.5c-2.5,2.2-2.8,6-0.6,8.5
	c31.7,36-72.8,60.9-93.1,42.6c-4.3-8.7,3.3-15.5-1.2-25.9c-6.6-18.4-12-26.7-26.3-27.3c-19.5,0.8-24.1-8.9-12.2-20.9
	c-21.4-0.2-27.1-7.9-5.5-26.7c3.3-2.9,11.3-11.9,18.2-18.2c-1.7-0.1-3.5-0.4-5.8-0.8c-19.8-3.7-5.5-22.3-17.1-30.2
	c-7.8,14.9-14.5,17.5-24.6-0.8c-2.3-5.7-10.2-10.5-7.6-15.8c1.5-0.6-0.3-15.7-1.9-16.3c-6.5,0.2-21.6-0.1-19.8-9.9
	c0.5-8.3,9-11.4,14.4-13.8c3.2-5.3-11.4-12.2-6.2-19.6c10.7-9.2,30.7,17.9,19.1-8.6c-9.3-13.2,17.1-35.8,22.1-50.6
	c6-13.5,9.3-20.8,15.6-22.2c7-3,18.4,13.1,23.2,8.9c-1.6-5.5-4.4-7-2.1-11.9c-15.4,4.8-17.3-14.8-7.9-20.7c1.6-2.1,4.8-0.7,6.9,0
	c-21-13.5-9.6-25.3,10.7-28c-17.7-8.2-2.6-23,7.5-26.7c18.7-3.3,48.4,10.6,38.1,29.8c32.4-3.5,39.9-23.3,58.3-47.5
	c8.5-12.9,12-25,19-29.6c7.2-4.4,4.2,26.7,15,26c18.7,0,32,2.3,48.3-27.8c15.2-28.6-7.2-43.2-13.1-64.2c-1.5-9.7,3.5-19.4-9.6-21.8
	c-3-0.8-12-3-11.1-9.2c1-6.5,12.4-7.6,18.2-7.3c14.4,3.7,33.3-14.2,17-28.7c-3.3-3.1-5.6-9.5-8.1-11.6c-7.4,2.8-12.6,31.4-28.8,14.8
	c-6.8-6.3-10.4-4.3-16.3,3.5c-7.8,12.1-33.3,26.7-33.9,40.1c-0.1,8.6-9.3,16.3-16.5,10.7c-12.2-19.3,13.4-15.4-20.1-38.4
	c7,8.3,16.2,24.6,3.7,28.5c-3.2,0.4-6.2-1.5-9-5.7c-3.2-4.8-12.9-11-41.6-13.9c-13.1-0.9-22.1,9.7-35.5,13.7
	c-10.5,3.8-16.4,1.2-22.8-1.5l0,0c-5.7-4.1-28.2-6.3-35.4-4.1c-8.3,3.3-16.7-7.5-24.5-14.1l0,0c-9.4-8.4-16.2-14.5-10-28.2
	c4.7-11.1-14.4-31.1-21.1-42.9c-10.6-19.7,15.4-21,14.6-4c1.6,0.5,5.1-0.7,6.7-3.4c7.3-10.4,24.8-2,31.2,6.3c5.4,4.5-1.8-5.7-3.5-7
	c-18.1-24.5-21.4-3.7-51.7-16c-19.2-5.7-52.1-22.6-57.4-38.7c-0.2-12.4,20.5-37.3,34.3-40c5.1,0.1,7.6,3.2,10,5.6
	c17.3,6.4,13.8-22.1,36.8-33.1c38.3-26.3,24.6,6.5,50-0.6c-3.5-4-13.2-8.8-11.1-15.2c7.9-23.6,34.5-18.1,52.5-34.5
	c17.2-17.4,80.5-37.2,58.1,9.5c-6.7,8.4,0.1,23.5-9.5,30.1c7.6,1,11,9.7,13.9,16.1c15.2,4,46.7,0.3,63.9,2.3
	c20.9-0.5,24.4,0.9,34.3,15.2c4.8,0.1-4.9-7.3,3.4-17.7c7.9-24.8,33.1-27.9,33.7,2.2c1.2-8.5,5-20.5-0.5-27.6
	c-6.2-7.3-29.4-15.6-15.2-26.3c20.1-11.2,35.4,25.6,55.2,11.9c12.9-10.6,26.2-3.7,37.1-10c1.7-4.9-1.4-21.6-11.1-21.8
	c-20.9-2.5-30.9,30.6-48.4,7.5l-0.1-0.1c-1.8-2-5.2-5.5-6.4-5.5c-15.8,10.3-19.2-2.7-9.3-15.9c-8.2,5.5-10.4,28.5-20.3,27.8
	c-7,0.2-14-6.2-18.8-14.5c-3.2,5.4-5.1,10.1,1.1,12.2c5.4,2.5,12.6,7.8,12.8,14.1c1.6,6.6-6.6,12.4-7.5,19.8
	c-0.3,5.3-4.2,10.5-9.9,7.2c-21-11.1-5.5-19.5-7.3-32.4c-5.9-5.2-15.2-11.5-8.9-20.9c-34.2-7.8-18.4-51.8,15.4-27.9
	c2-5,6.3-8.6,13.6-9.4c-10.8-23.8-48.2,12.4-43.1-21.5c-3.7,5.3-11.9,3.7-14.6,8.6c-6.5,13.5-27.4,1.4-41.2-2.1
	c-35.3-11-1.6-53.1-35.1-68.7l0,0c-5.9-4.2-12.1-8.5-16.4-16.2c-8.4-15-48-42.6-58.7-47.5c-9.5-4.4-31.1-18.9-33.9-25.3
	c-13.5-23.4-30.7-14.3-33-24.1c1.5-30.1,46.3-13,26-64.8c-18.2-46.5,94.6,25.8,167.2-79.5c-7.8,3.2-8.8-4.9-7-13.9
	c1.6-9.7,3.6-40.5,3.6-40.8l0.2-2.6c10.8-3.3,10,2.4,9.9,22c8.2-10.3-3.7-21.7,7.6-28.6c-4.4-2.4-7.3-2.2-12-4.7
	c-5.3-3.9-11.9-9.3-0.4-19.5c16.3-17.3,32.5-10.1,15.8,2.9c5.5-4.2,11.6-6.8,13.1-8.8c5.7-8.1,12-12.1,17.5-11.6
	c-9.3-10.2,2.8-15.3,6.3-27.1c-17.2,16.6-9.9,15.9-22,31.3c-3.1,4-9.5,1.5-9.1-3.5c0.2-2,0.8-4.3,1.9-7.1
	c3.3-7.2,11.2-18.7,27.4-38.1c5.1-4.3,25.5,7.3,22.9,15.2c11.8-9.6,28.7-15.7,41.6-26.3c12.5-11.1,26.1-21.2,37.4-30.2l0,0
	c3.2-3,6.4-6.1,10.5-5.1c4.2,1.6,6.5,3.1,7.5,3.9c-0.5-0.6-1.1-1.5-1.8-3c-11.3-20.2-5.6-32.8,23-47c19.5-8.2,25-8.7,28.4-6.9
	c7,6.2,2.3,10.5-6.5,15.3c12.4-3.9,19.7,8.8,33.3,5.5c17.4-4.2,27.7-18,45.9-26.2c14.2-7.1,16.3-14.5,18.6-22.4
	c5.5-15.8,13-31,33-35.1c16.5-3,34.8,3.5,35.6,20.8c52.7-14.4,21.6,44.9,1.9,33.9c-1.8,14.9-4.8,7.2-14.4,14.4
	c-5.4,4.3-6.7,8.5-2,8.9c6-1.8,10,3.9,15.4,2.8c7.7-2.4,9.2,5.6,11.4,9.4c11.4-11,16.2-5.8,21,7.6c0.4-0.7,0.7-2.3-0.1-4.2
	c-4.2-10.9-0.5-10.7-5.8-24.1c-4.6-12.4,0.8-16.8,5.6-20.7l0,0c7.2-4.8,12-20.1,20.2-20.6c21.2-2.5,36.8,28,17.6,42.1
	c6.4,1.9,23.8,5.6,27,9.6c13-11.8,20.2-21,30.4-5.2c1.1-21.9,26.7-6.7,37,1.5c4.7-6.8,12-2,21.8-4.1c28.7-4.7,27.2,22.5,6.9,30.6
	c8,4.2,31.3,11.9,26.6,16.5c20.9-7.5,27.6,13.2,5,21c11.2,6.3,19.6-6.4,30.7-10.6c13.4-6.4,19.4,4,30.6,0.4
	c12-5.7,26.7,0.1,21.9,13.2c9.5-6.7,12.7-4.6,15.4-0.2c15.5-15.7,37.8-15.3,50.2,6.2c13.3,0.9,31.7,9,45.1,15.7
	c14,8.1,36.4,13.6,49.1,22.4c20.3,16.7,35.3-25.5,57.5-0.7c10.6,8,15.4,14,31.1,13.5c9.9-0.7,22.7,4,12.8,14
	c12.2,2.6,18.5-11.1,31.9,3.4c20.7-16.5,50-21.4,78.7-7.8c-4.6-15.4,22.7-16.6,31.9-8.6c9.4,6.7,22.6,3.9,30,16
	c5.5,11.5,38.4,32.6,54.8,45.1c7.1-12.1,14.4,12.2,14.4,12.2L3271.1,2154.3z"/>
<path class="st7" d="M2881.8,821.7c8.3-3.4,12.2-12.9,8.8-21.2s-12.9-12.2-21.2-8.8c-8.3,3.4-12.2,12.9-8.8,21.2
	C2864,821.2,2873.5,825.2,2881.8,821.7z"/>
<path class="st7" d="M3058.9,1365.4c6.6-2.7,9.7-10.2,7-16.8c-2.7-6.6-10.2-9.7-16.8-7c-6.6,2.7-9.7,10.2-7,16.8
	C3044.8,1365,3052.3,1368.1,3058.9,1365.4z"/>
<path class="st7" d="M2817.4,1994.4c2.1-8.7-3.3-17.4-12-19.5c-8.7-2.1-17.4,3.3-19.5,12c-2,8.7,3.3,17.4,12,19.5
	C2806.6,2008.5,2815.3,2003.1,2817.4,1994.4z"/>
<path class="st7" d="M2211.8,2016.8c1-6.2-3.2-12-9.4-13s-12,3.2-13,9.4c-1,6.2,3.2,12,9.4,13
	C2205,2027.2,2210.8,2023,2211.8,2016.8z"/>
<path class="st7" d="M2037.7,1478.2c1-6.2-3.2-12-9.4-13c-6.2-1-12,3.2-13,9.4c-1,6.2,3.2,12,9.4,13
	C2030.8,1488.6,2036.7,1484.4,2037.7,1478.2z"/>
<path class="st7" d="M1936.3,1515.4c0,4.7-3.8,8.5-8.5,8.5c-4.7,0-8.5-3.8-8.5-8.5c0-4.7,3.8-8.5,8.5-8.5
	C1932.5,1506.9,1936.3,1510.7,1936.3,1515.4z"/>
<path class="st7" d="M1969.3,1589.5c0,4.5-3.7,8.2-8.2,8.2s-8.2-3.7-8.2-8.2s3.7-8.2,8.2-8.2S1969.3,1584.9,1969.3,1589.5z"/>
<path class="st7" d="M2439.8,643.3c6.5,0,11.7-5.3,11.7-11.7s-5.2-11.7-11.7-11.7c-6.5,0-11.7,5.3-11.7,11.7
	S2433.3,643.3,2439.8,643.3z"/>
<path class="st7" d="M2941.3,1575.4c6.6-0.2,11.8-5.7,11.6-12.3c-0.2-6.6-5.7-11.8-12.3-11.7c-6.6,0.2-11.8,5.7-11.7,12.3
	C2929.1,1570.4,2934.6,1575.6,2941.3,1575.4z"/>
<path class="st7" d="M3197.5,1742.1c0.2-6.6-5.1-12.1-11.7-12.3c-6.6-0.2-12.1,5-12.3,11.7c-0.2,6.6,5.1,12.1,11.7,12.3
	C3191.8,1754,3197.3,1748.7,3197.5,1742.1z"/>
<path class="st8" d="M1986.6,1507.3v24.1h-3.7v-24.1h-8.5v-3h20.6v3H1986.6z"/>
<path class="st8" d="M2011.4,1522.4h-12.2c0.5,4,3.2,7,7.5,7c1.6,0,3-0.2,4.2-0.7v2.6c-1.6,0.4-3.2,0.6-4.6,0.6
	c-6.1,0-11-4.1-11-10.3c0-5.1,2.6-9.7,8.2-9.7c4.2,0,7.9,2.4,7.9,7.4C2011.5,1521,2011.4,1522.4,2011.4,1522.4z M2008.3,1519.2
	c0-2.9-1.5-5-4.6-5c-2.9,0-4.6,1.9-4.6,5.8h9.1C2008.2,1519.8,2008.3,1519.5,2008.3,1519.2z"/>
<path class="st8" d="M2016.7,1531.5v-28h3.6v28H2016.7z"/>
<path class="st8" d="M2026.6,1531.5v-28h3.6v28H2026.6z"/>
<path class="st8" d="M2051.3,1522.4h-12.2c0.5,4,3.2,7,7.5,7c1.6,0,2.9-0.2,4.2-0.7v2.6c-1.6,0.4-3.2,0.6-4.6,0.6
	c-6.1,0-10.9-4.1-10.9-10.3c0-5.1,2.6-9.7,8.2-9.7c4.2,0,7.9,2.4,7.9,7.4C2051.5,1521,2051.3,1522.4,2051.3,1522.4z M2048.2,1519.2
	c0-2.9-1.5-5-4.5-5c-2.9,0-4.6,1.9-4.6,5.8h9.1C2048.2,1519.8,2048.2,1519.5,2048.2,1519.2z"/>
<path class="st8" d="M2064.7,1515.1c-2,0-3.5,1-4.5,2.9v13.5h-3.5v-19.1h3.2l0.3,2.5c1.4-2,3.2-3,5.3-3c0.2,0,0.8,0.1,1.7,0.2v3.4
	C2066.4,1515.2,2065.5,1515.1,2064.7,1515.1z"/>
<path class="st8" d="M1879.5,1624.6l-9.7-17.8c-1.4-2.6-3.1-6.3-3.1-6.3h-0.1c0,0,0.2,4.6,0.2,8v16.1h-3.3v-27.2h5.3l9.8,17.9
	c1.7,3,2.7,6,2.7,6h0.1c0,0-0.4-4.4-0.4-6.7v-17.2h3.4v27.2H1879.5z"/>
<path class="st8" d="M1898.7,1625.1c-5.9,0-9.1-4.2-9.1-9.9c0-5.6,3.2-10.1,9.1-10.1c5.9,0,9.1,4.6,9.1,10.1
	C1907.8,1620.8,1904.6,1625.1,1898.7,1625.1z M1898.8,1607.7c-3.9,0-5.3,4-5.3,7.3c0,3.4,1,7.5,5.3,7.5c4.2,0,5.3-4,5.3-7.5
	C1904,1611.8,1902.6,1607.7,1898.8,1607.7z"/>
<path class="st8" d="M1936.2,1624.6v-12c0-3.2-1.4-4.8-4-4.8c-1.8,0-3.2,0.7-4.1,2.2v14.6h-3.5v-12.1c0-3.2-1.4-4.8-4-4.8
	c-1.8,0-3.2,0.9-4.1,2.8v14.1h-3.6v-19.1h3.2l0.3,2.4c1.2-1.9,2.8-2.8,4.9-2.8c3,0,4.9,1,6,2.9c1.2-1.9,3.1-2.9,5.6-2.9
	c5.1,0,6.7,2.9,6.7,7.6v11.9H1936.2z"/>
<path class="st8" d="M1960.9,1615.6h-12.2c0.5,4,3.2,7,7.6,7c1.6,0,3-0.2,4.2-0.7v2.6c-1.6,0.4-3.2,0.6-4.6,0.6
	c-6.1,0-10.9-4.1-10.9-10.3c0-5.1,2.6-9.7,8.2-9.7c4.2,0,7.9,2.4,7.9,7.4C1961,1614.2,1960.9,1615.6,1960.9,1615.6z M1957.8,1612.4
	c0-2.9-1.5-5-4.6-5c-2.9,0-4.6,1.9-4.6,5.8h9.2C1957.7,1612.9,1957.8,1612.7,1957.8,1612.4z"/>
<path class="st8" d="M2447,620c-1.9,0-4.5-0.1-6.9-0.2v-27.2c2.3-0.2,4.7-0.2,6.5-0.2c6.7,0,10,2.5,10,7.3c0,2.7-1.3,4.6-4.1,6
	c3.2,1.2,4.8,3.4,4.8,6.6C2457.3,617.5,2453.9,620,2447,620z M2446.2,594.8c-0.3,0-1.3,0-2.3,0.1v9.6c0.8,0,1.8,0,2.3,0
	c4.5,0,6.7-1.6,6.7-4.9S2450.6,594.8,2446.2,594.8z M2446.3,607c-0.6,0-1.7,0-2.4,0v10.5c0.8,0,1.9,0.1,2.6,0.1c4.7,0,7-1.7,7-5.3
	C2453.6,607.7,2450.2,607,2446.3,607z"/>
<path class="st8" d="M2473.5,619.8l-0.3-2c-1.7,1.6-3.6,2.4-5.6,2.4c-3.4,0-5.9-1.6-5.9-5.3c0-4.4,3.4-6.6,7.3-6.6h4.2v-1.9
	c0-2.6-2.4-3.5-4.6-3.5h-0.1c-1.9,0-3.4,0.4-4.8,1v-2.8c1.4-0.6,3.2-1,4.8-1h0.1c5.4,0,8.1,2.2,8.1,6.5v13.1H2473.5z M2473.2,610.7
	h-3c-3.2,0-4.8,1.5-4.8,4.1c0,1.8,1.3,3,3.1,3c1.8,0,3.3-0.7,4.8-2.3V610.7z"/>
<path class="st8" d="M2491,603.4c-2,0-3.5,1-4.5,2.9v13.5h-3.6v-19.1h3.2l0.3,2.5c1.4-2,3.2-3,5.3-3c0.2,0,0.8,0.1,1.7,0.2v3.4
	C2492.8,603.6,2491.9,603.4,2491,603.4z"/>
<path class="st8" d="M2505.6,603.4c-2,0-3.5,1-4.5,2.9v13.5h-3.6v-19.1h3.2l0.3,2.5c1.4-2,3.2-3,5.3-3c0.2,0,0.8,0.1,1.7,0.2v3.4
	C2507.3,603.6,2506.5,603.4,2505.6,603.4z"/>
<path class="st8" d="M2520,620.2c-5.9,0-9.1-4.2-9.1-9.9c0-5.6,3.2-10.1,9.1-10.1s9.1,4.6,9.1,10.1
	C2529.1,615.9,2525.8,620.2,2520,620.2z M2520,602.8c-3.9,0-5.3,4-5.3,7.3c0,3.4,1,7.5,5.3,7.5c4.2,0,5.3-4,5.3-7.5
	C2525.2,606.9,2523.8,602.8,2520,602.8z"/>
<path class="st8" d="M2554.9,619.8h-4.4l-2.9-10.1c-0.6-2.2-1.4-5.8-1.4-5.8s-0.8,3.6-1.4,5.8l-3,10.1h-4.2l-5.9-19.1h3.5l3.3,11.5
	c0.7,2.5,1.6,5.4,1.6,5.4s0.7-2.9,1.4-5.4l3.1-11.5h3.9l3,11.5c0.7,2.6,1.5,5.4,1.5,5.4s0.8-2.9,1.5-5.4l3.4-11.5h3.2L2554.9,619.8z
	"/>
<path class="st8" d="M2886.4,768.2h-0.2l-2.9,0v11.5h-3.8v-27.2c2.3-0.1,4.8-0.2,6.6-0.2c5.5,0,9.9,1.6,9.9,7.9
	C2896,765.7,2891.3,768.2,2886.4,768.2z M2885.5,754.7c-0.3,0-1.3,0-2.2,0.1v10.8c1,0,2,0,2.3,0c3.5,0,6.7-1.6,6.7-5.5
	C2892.3,756.5,2890.1,754.7,2885.5,754.7z"/>
<path class="st8" d="M2909.7,763.2c-2,0-3.5,1-4.5,2.9v13.5h-3.6v-19.1h3.2l0.3,2.5c1.4-2,3.2-3,5.3-3c0.2,0,0.8,0.1,1.7,0.2v3.4
	C2911.4,763.4,2910.6,763.2,2909.7,763.2z"/>
<path class="st8" d="M2928.1,779.6l-0.3-2.2c-1.3,1.8-3.1,2.7-5.2,2.7c-5.3,0-6.5-2.8-6.5-7.5v-12h3.6v12c0,3,0.6,4.8,3.8,4.8
	c1.9,0,3.4-0.9,4.4-2.8v-14.1h3.5v19.1H2928.1z"/>
<path class="st8" d="M2950,779.6l-0.3-2.2c-1.6,1.8-3.6,2.7-5.9,2.7c-5.9,0-7.3-5.2-7.3-9.9c0-5.4,3.3-10.1,9-10.1
	c1.4,0,2.8,0.1,4.2,0.4v-8.9h3.6v28H2950z M2949.6,763.3c-1.1-0.4-2.2-0.6-3.5-0.6c-4.2,0-5.9,4-5.9,7.6c0,4.6,1.5,6.9,4.6,6.9
	c2,0,3.6-0.9,4.8-2.7V763.3z"/>
<path class="st8" d="M2971.5,779.6v-12.1c0-3.2-1.3-4.8-3.9-4.8c-2,0-3.5,1.1-4.5,3.2v13.6h-3.6v-28h3.6v11.2
	c1.3-1.8,3.1-2.8,5.3-2.8c4.5,0,6.7,2.3,6.7,6.9v12.7H2971.5z"/>
<path class="st8" d="M2989.1,780c-5.9,0-9.1-4.2-9.1-9.9c0-5.6,3.2-10.1,9.1-10.1c5.9,0,9.1,4.6,9.1,10.1
	C2998.2,775.8,2995,780,2989.1,780z M2989.1,762.6c-3.9,0-5.3,4-5.3,7.3c0,3.4,1,7.5,5.3,7.5c4.2,0,5.3-4,5.3-7.5
	C2994.4,766.7,2993,762.6,2989.1,762.6z"/>
<path class="st8" d="M3018.1,770.5h-12.2c0.5,4,3.2,7,7.6,7c1.6,0,3-0.2,4.2-0.7v2.6c-1.6,0.4-3.2,0.6-4.6,0.6
	c-6.1,0-10.9-4.1-10.9-10.3c0-5.1,2.6-9.7,8.2-9.7c4.2,0,7.9,2.4,7.9,7.4C3018.2,769.2,3018.1,770.5,3018.1,770.5z M3015,767.4
	c0-2.9-1.5-5-4.6-5c-2.9,0-4.6,1.9-4.6,5.8h9.1C3014.9,767.9,3015,767.7,3015,767.4z"/>
<path class="st8" d="M3040.4,779.8c-1.9,0-4.5-0.1-6.9-0.2v-27.2c2.3-0.2,4.7-0.2,6.6-0.2c6.7,0,10,2.5,10,7.3c0,2.7-1.3,4.6-4.1,6
	c3.2,1.2,4.8,3.4,4.8,6.6C3050.7,777.3,3047.3,779.8,3040.4,779.8z M3039.5,754.7c-0.3,0-1.3,0-2.3,0.1v9.6c0.8,0,1.8,0,2.3,0
	c4.5,0,6.7-1.6,6.7-4.9C3046.3,756.3,3044,754.7,3039.5,754.7z M3039.7,766.8c-0.6,0-1.7,0-2.4,0v10.5c0.8,0,1.9,0.1,2.6,0.1
	c4.7,0,7-1.7,7-5.3C3046.9,767.6,3043.5,766.8,3039.7,766.8z"/>
<path class="st8" d="M3066.9,779.6l-0.3-2c-1.7,1.6-3.6,2.4-5.6,2.4c-3.4,0-5.9-1.6-5.9-5.3c0-4.4,3.4-6.6,7.3-6.6h4.2v-1.9
	c0-2.6-2.4-3.5-4.6-3.5h-0.1c-1.9,0-3.4,0.4-4.8,1V761c1.4-0.6,3.2-1,4.8-1h0.1c5.4,0,8.1,2.2,8.1,6.5v13.1H3066.9z M3066.6,770.5
	h-3c-3.2,0-4.8,1.5-4.8,4.1c0,1.8,1.3,3,3.1,3c1.8,0,3.3-0.7,4.8-2.3V770.5z"/>
<path class="st8" d="M3083.1,784.1c-1.2,2.8-3.3,4.3-6.2,4.3c-1.5,0-2.7-0.2-3.5-0.4v-2.7c0.9,0.3,1.8,0.5,2.8,0.5
	c1.4,0,2.4-0.4,3.1-1.3c0.4-0.5,1.1-2,2.2-4.5l-8-19.5h3.8l5.4,13.4c0.3,0.8,0.6,1.5,0.8,2.1c0.3-1,0.5-1.7,0.7-2.1l5.6-13.4h3.4
	L3083.1,784.1z"/>
<path class="st8" d="M3010.1,1262.4v8.2h10.5v2.8h-10.5v10.8h-3.4v-24.5h14.3v2.7H3010.1z"/>
<path class="st8" d="M3031.9,1284.6c-5.3,0-8.2-3.8-8.2-8.9c0-5.1,2.9-9.2,8.2-9.2c5.3,0,8.2,4.1,8.2,9.2
	C3040.1,1280.7,3037.2,1284.6,3031.9,1284.6z M3032,1268.9c-3.5,0-4.8,3.6-4.8,6.6c0,3.1,0.9,6.8,4.8,6.8s4.8-3.7,4.8-6.8
	C3036.7,1272.6,3035.4,1268.9,3032,1268.9L3032,1268.9z"/>
<path class="st8" d="M3052,1269.4c-1.8,0-3.2,0.9-4.1,2.6v12.2h-3.2V1267h2.9l0.3,2.2c1.2-1.8,2.9-2.7,4.8-2.7
	c0.2,0,0.7,0.1,1.5,0.2v3.1C3053.6,1269.5,3052.8,1269.4,3052,1269.4L3052,1269.4z"/>
<path class="st8" d="M3062.1,1269.4v9.6c0,2.1,0.6,3.1,2.8,3.1c1,0,1.8-0.1,2.5-0.5v2.4c-0.8,0.2-1.7,0.4-2.5,0.4
	c-3.8,0-6-1.1-6-5.2v-9.9h-3.3v-2.5h3.3v-4.3l3.2-1.4v5.7h5.4v2.5H3062.1L3062.1,1269.4z"/>
<path class="st8" d="M3006.4,1318.2v9.3h-3.2v-9.3l-8.4-15.2h4l5,9.7c0.6,1.1,1.1,2.6,1.1,2.6h0.1c0,0,0.7-1.5,1.3-2.6l5.4-9.7h3.2
	L3006.4,1318.2L3006.4,1318.2z"/>
<path class="st8" d="M3028.7,1327.5l-0.3-2c-1.1,1.6-2.8,2.4-4.7,2.4c-4.8,0-5.9-2.5-5.9-6.8v-10.8h3.2v10.9c0,2.7,0.5,4.4,3.5,4.4
	c1.7,0,3.1-0.8,4-2.5v-12.7h3.2v17.2H3028.7L3028.7,1327.5z"/>
<path class="st8" d="M3047.6,1327.5l-7-9.7v9.7h-3.2v-25.3h3.2v14.7l6.9-6.7h3.5l-7.1,6.9l7.5,10.4L3047.6,1327.5L3047.6,1327.5z"/>
<path class="st8" d="M3061.7,1327.9c-5.3,0-8.2-3.8-8.2-8.9c0-5.1,2.9-9.2,8.2-9.2c5.3,0,8.2,4.1,8.2,9.2
	C3069.9,1324,3067,1327.9,3061.7,1327.9z M3061.7,1312.2c-3.5,0-4.8,3.7-4.8,6.6c0,3.1,0.9,6.8,4.8,6.8s4.8-3.6,4.8-6.8
	C3066.4,1315.9,3065.2,1312.2,3061.7,1312.2L3061.7,1312.2z"/>
<path class="st8" d="M3085.4,1327.5v-10.9c0-2.9-1.2-4.3-3.6-4.3c-1.8,0-3.2,0.9-4.1,2.7v12.5h-3.2v-17.2h2.9l0.3,2.2
	c1.2-1.7,2.9-2.6,4.8-2.6c4,0,6,2.1,6,6.2v11.5L3085.4,1327.5L3085.4,1327.5z"/>
<path class="st8" d="M2963.5,1555.6v8.4h10.7v2.8h-10.7v11h-3.5v-25h14.5v2.8H2963.5z"/>
<path class="st8" d="M2988.1,1577.7l-0.3-1.8c-1.5,1.5-3.3,2.2-5.2,2.2c-3.1,0-5.4-1.5-5.4-4.9c0-4,3.1-6.1,6.7-6.1h3.8v-1.8
	c0-2.4-2.2-3.2-4.3-3.2h-0.1c-1.7,0-3.2,0.4-4.4,1v-2.5c1.3-0.6,2.9-0.9,4.4-0.9h0.1c5,0,7.4,2.1,7.4,6v12L2988.1,1577.7
	L2988.1,1577.7z M2987.8,1569.4h-2.8c-3,0-4.4,1.4-4.4,3.7c0,1.7,1.2,2.8,2.8,2.8c1.6,0,3.1-0.7,4.4-2.1L2987.8,1569.4
	L2987.8,1569.4z"/>
<path class="st8" d="M2998.8,1556.7c-1.2,0-2.1-0.9-2.1-2c0-1.2,0.9-2.1,2.1-2.1c1.2,0,2,0.9,2,2.1
	C3000.9,1555.8,3000,1556.7,2998.8,1556.7z M2997.2,1577.7v-17.6h3.3v17.6H2997.2z"/>
<path class="st8" d="M3014.1,1562.7c-1.8,0-3.2,0.9-4.1,2.7v12.4h-3.3v-17.6h3l0.3,2.3c1.3-1.8,2.9-2.7,4.9-2.7
	c0.2,0,0.7,0.1,1.5,0.2v3.1C3015.7,1562.8,3014.9,1562.7,3014.1,1562.7L3014.1,1562.7z"/>
<path class="st8" d="M3025,1578.1c-2.1,0-3.8-0.2-4.9-0.5V1552h3.3v10.4c1.1-1.4,3.3-2.5,5-2.5c4.7,0,7.2,2.8,7.2,8.4
	C3035.5,1574.9,3031.4,1578.1,3025,1578.1L3025,1578.1z M3028,1562.3c-1.6,0-3.7,1-4.6,2.4v10.8c0,0,1.2,0.1,2.5,0.1
	c4.1,0,6.2-3.9,6.2-7.3C3032,1564.3,3030.7,1562.3,3028,1562.3z"/>
<path class="st8" d="M3049.8,1577.7l-0.2-1.8c-1.5,1.5-3.3,2.2-5.2,2.2c-3.1,0-5.4-1.5-5.4-4.9c0-4,3.1-6.1,6.7-6.1h3.8v-1.8
	c0-2.4-2.2-3.2-4.3-3.2h-0.1c-1.7,0-3.1,0.4-4.4,1v-2.5c1.3-0.6,2.9-0.9,4.4-0.9h0.1c4.9,0,7.4,2.1,7.4,6v12L3049.8,1577.7
	L3049.8,1577.7z M3049.5,1569.4h-2.8c-3,0-4.4,1.4-4.4,3.8c0,1.7,1.2,2.8,2.8,2.8c1.6,0,3.1-0.7,4.4-2.1L3049.5,1569.4
	L3049.5,1569.4z"/>
<path class="st8" d="M3069.6,1577.7v-11.1c0-2.9-1.2-4.4-3.6-4.4c-1.8,0-3.3,0.9-4.1,2.8v12.7h-3.3v-17.6h3l0.3,2.2
	c1.2-1.8,2.9-2.7,4.9-2.7c4.1,0,6.1,2.1,6.1,6.3v11.7L3069.6,1577.7L3069.6,1577.7z"/>
<path class="st8" d="M3088.8,1577.7l-7.2-9.8v9.8h-3.3V1552h3.3v15l7-6.8h3.6l-7.2,7l7.6,10.5L3088.8,1577.7L3088.8,1577.7z"/>
<path class="st8" d="M3099.8,1578.1c-1.7,0-3.1-0.2-4.2-0.5v-2.5c1.3,0.4,2.6,0.6,3.9,0.6c1.8,0,4.4-0.7,4.4-2.9
	c0-3.8-8.2-1.3-8.2-7.9c0-3.4,3.6-5.2,6.7-5.2c1.8,0,3.1,0.2,4.1,0.5v2.5c-0.9-0.3-2.1-0.6-3.6-0.6c-1.7,0-3.8,0.5-3.8,2.6
	c0,4.1,8.1,1.2,8.1,8.1C3107.2,1576.6,3102.8,1578.1,3099.8,1578.1L3099.8,1578.1z"/>
<path class="st8" d="M2540.7,1991.6l-2.6-7.2h-14.4l-2.8,7.2h-3.7l11.9-31.1h4.6l11.6,31.1H2540.7L2540.7,1991.6z M2532.9,1970.2
	c-1-2.8-1.8-6.2-1.8-6.2h-0.1c0,0-0.9,3.5-1.8,6.2l-4.1,10.8h11.8L2532.9,1970.2L2532.9,1970.2z"/>
<path class="st8" d="M2563.6,1991.6v-13.8c0-3.7-1.5-5.4-4.5-5.4c-2.3,0-4.1,1.1-5.2,3.5v15.8h-4.1v-21.9h3.7l0.4,2.8
	c1.5-2.2,3.6-3.3,6.1-3.3c5.1,0,7.6,2.7,7.6,7.8v14.6L2563.6,1991.6L2563.6,1991.6z"/>
<path class="st8" d="M2585.8,1992.1c-6.8,0-12.5-4.9-12.5-11.9c0-7.4,5.6-11.1,12.5-11.1c1.3,0,2.5,0.3,3.2,0.6v3
	c-0.9-0.3-2-0.5-3.2-0.5c-5.3,0-8,2.7-8,8.1c0,4.3,3.1,8.7,7.8,8.7c1.6,0,2.9-0.2,3.8-0.4v3
	C2589.5,1991.6,2587.5,1992.1,2585.8,1992.1z"/>
<path class="st8" d="M2608.5,1991.6v-13.8c0-3.7-1.5-5.5-4.5-5.5c-2.2,0-4,1.2-5.2,3.7v15.6h-4.1v-32h4.1v12.8
	c1.5-2.1,3.6-3.2,6.1-3.2c5.1,0,7.7,2.7,7.7,7.9v14.6H2608.5z"/>
<path class="st8" d="M2628.7,1992.1c-6.8,0-10.4-4.9-10.4-11.3c0-6.5,3.7-11.6,10.4-11.6s10.4,5.2,10.4,11.6
	C2639.1,1987.2,2635.4,1992.1,2628.7,1992.1z M2628.7,1972.2c-4.5,0-6.1,4.6-6.1,8.4c0,3.9,1.2,8.6,6,8.6c4.9,0,6.1-4.6,6.1-8.6
	C2634.7,1976.9,2633.1,1972.2,2628.7,1972.2L2628.7,1972.2z"/>
<path class="st8" d="M2654.2,1972.9c-2.3,0-4,1.1-5.2,3.3v15.4h-4.1v-21.9h3.7l0.4,2.8c1.6-2.2,3.6-3.4,6.1-3.4
	c0.3,0,0.9,0.1,1.9,0.3v3.9C2656.2,1973.1,2655.2,1972.9,2654.2,1972.9L2654.2,1972.9z"/>
<path class="st8" d="M2673.6,1991.6l-0.3-2.3c-1.9,1.9-4.1,2.8-6.5,2.8c-3.9,0-6.7-1.9-6.7-6.1c0-5,3.9-7.6,8.4-7.6h4.8v-2.2
	c0-2.9-2.8-4-5.3-4h-0.1c-2.2,0-3.9,0.5-5.4,1.2v-3.2c1.6-0.7,3.7-1.1,5.4-1.1h0.1c6.2,0,9.2,2.5,9.2,7.4v15L2673.6,1991.6
	L2673.6,1991.6z M2673.2,1981.2h-3.5c-3.7,0-5.5,1.7-5.5,4.7c0,2.1,1.5,3.4,3.5,3.4s3.8-0.8,5.4-2.6L2673.2,1981.2L2673.2,1981.2z"
	/>
<path class="st8" d="M2692.5,2001.7c-3.9,0-7-0.8-8.2-1.2v-3.3c0,0,3.4,1.7,7.7,1.7c3.1,0,6.2-0.6,6.2-4.6v-5.3c0,0-2.4,3.4-6.7,3.4
	c-5.6,0-8.5-3.5-8.5-10.6c0-8.2,5.1-12.4,13.1-12.4c1.9,0,4.3,0.2,6.1,0.6v23.7C2702.3,1999.6,2698.5,2001.7,2692.5,2001.7
	L2692.5,2001.7z M2698.3,1972.5c0,0-1.2-0.3-3.2-0.3c-5.4,0-7.7,4.8-7.7,9.4c0,4.9,1.7,7.4,5,7.4c2,0,4.6-1.3,5.8-3.1V1972.5
	L2698.3,1972.5z"/>
<path class="st8" d="M2726.4,1981.3h-13.9c0.6,4.5,3.7,8,8.6,8c1.8,0,3.4-0.3,4.9-0.8v2.9c-1.9,0.4-3.6,0.7-5.3,0.7
	c-7,0-12.5-4.7-12.5-11.8c0-5.8,3-11.1,9.3-11.1c4.8,0,9.1,2.8,9.1,8.5C2726.6,1979.7,2726.4,1981.3,2726.4,1981.3L2726.4,1981.3z
	 M2722.9,1977.6c0-3.3-1.7-5.8-5.2-5.8c-3.3,0-5.2,2.1-5.3,6.7h10.5C2722.8,1978.2,2722.9,1978,2722.9,1977.6L2722.9,1977.6z"/>
<path class="st8" d="M2216.6,2005.3c1.2-0.2,3.1-0.4,5-0.4c2.7,0,4.5,0.5,5.8,1.5c1.1,0.8,1.8,2.1,1.8,3.8c0,2.1-1.4,3.8-3.6,4.7
	v0.1c2,0.5,4.4,2.2,4.4,5.3c0,1.8-0.7,3.2-1.8,4.3c-1.5,1.4-3.9,2-7.4,2c-1.9,0-3.4-0.1-4.3-0.2V2005.3z M2219.3,2014.1h2.5
	c2.9,0,4.6-1.5,4.6-3.6c0-2.5-1.9-3.5-4.7-3.5c-1.3,0-2,0.1-2.4,0.2L2219.3,2014.1L2219.3,2014.1z M2219.3,2024.3
	c0.5,0.1,1.3,0.1,2.3,0.1c2.8,0,5.5-1,5.5-4.1c0-2.9-2.5-4.1-5.5-4.1h-2.3L2219.3,2024.3L2219.3,2024.3z"/>
<path class="st8" d="M2235.3,2019.2c0.1,3.8,2.5,5.3,5.2,5.3c2,0,3.2-0.3,4.2-0.8l0.5,2c-1,0.4-2.6,0.9-5.1,0.9
	c-4.7,0-7.5-3.1-7.5-7.7c0-4.6,2.7-8.2,7.2-8.2c5,0,6.3,4.4,6.3,7.2c0,0.6-0.1,1-0.1,1.3H2235.3L2235.3,2019.2z M2243.4,2017.2
	c0-1.8-0.7-4.5-3.8-4.5c-2.8,0-4.1,2.6-4.3,4.5H2243.4L2243.4,2017.2z"/>
<path class="st8" d="M2252.9,2006.7v4.4h4v2.1h-4v8.2c0,1.9,0.5,3,2.1,3c0.7,0,1.3-0.1,1.6-0.2l0.1,2.1c-0.5,0.2-1.4,0.4-2.5,0.4
	c-1.3,0-2.3-0.4-3-1.2c-0.8-0.8-1.1-2.2-1.1-4v-8.3h-2.4v-2.1h2.4v-3.7L2252.9,2006.7z"/>
<path class="st8" d="M2260,2003.9h2.8v9.6h0.1c0.4-0.8,1.1-1.5,2-2c0.8-0.5,1.8-0.8,2.8-0.8c2.1,0,5.3,1.3,5.3,6.5v9.1h-2.8v-8.8
	c0-2.5-0.9-4.6-3.5-4.6c-1.8,0-3.2,1.3-3.7,2.8c-0.2,0.4-0.2,0.8-0.2,1.3v9.2h-2.8V2003.9z"/>
<path class="st8" d="M2279.1,2019.2c0.1,3.8,2.5,5.3,5.2,5.3c2,0,3.2-0.3,4.2-0.8l0.5,2c-1,0.4-2.7,0.9-5.1,0.9
	c-4.7,0-7.5-3.1-7.5-7.7c0-4.6,2.7-8.2,7.2-8.2c5,0,6.3,4.4,6.3,7.2c0,0.6-0.1,1-0.1,1.3H2279.1L2279.1,2019.2z M2287.2,2017.2
	c0-1.8-0.7-4.5-3.8-4.5c-2.8,0-4,2.6-4.3,4.5H2287.2L2287.2,2017.2z"/>
<path class="st8" d="M2293.4,2003.9h2.8v22.4h-2.8V2003.9z"/>
<path class="st8" d="M3201.1,1705.6v24.1h-3.7v-24.1h-8.5v-3h20.6v3H3201.1z"/>
<path class="st8" d="M3219.1,1730.2c-5.9,0-9.1-4.2-9.1-9.9c0-5.6,3.2-10.2,9.1-10.2c5.9,0,9.1,4.6,9.1,10.2
	C3228.2,1725.9,3225,1730.2,3219.1,1730.2z M3219.1,1712.8c-3.9,0-5.3,4-5.3,7.3c0,3.4,1,7.5,5.3,7.5c4.2,0,5.3-4,5.3-7.5
	C3224.4,1716.9,3223,1712.8,3219.1,1712.8z"/>
<path class="st8" d="M3244.7,1729.8l-7.8-10.7v10.7h-3.5v-28h3.5v16.3l7.6-7.4h3.9l-7.8,7.6l8.3,11.5H3244.7z"/>
</svg>
